<?xml version="1.0" encoding="UTF-8"?>
<svg width="60px" height="60px" viewBox="0 0 60 60" version="1.1" xmlns="http://www.w3.org/2000/svg" xmlns:xlink="http://www.w3.org/1999/xlink">
    <!-- Generator: Sketch 52.5 (67469) - http://www.bohemiancoding.com/sketch -->
    <title>advantage_4_slice</title>
    <desc>Created with Sketch.</desc>
    <defs>
        <linearGradient x1="15.8072917%" y1="100%" x2="83.2356771%" y2="10.8919271%" id="linearGradient-1">
            <stop stop-color="#D049FF" offset="0%"></stop>
            <stop stop-color="#CF86FF" offset="100%"></stop>
        </linearGradient>
    </defs>
    <g id="Page-1" stroke="none" stroke-width="1" fill="none" fill-rule="evenodd">
        <g id="Artboard" transform="translate(-42.000000, -26.000000)" fill-rule="nonzero">
            <g id="advantage_4" transform="translate(42.000000, 26.000000)">
                <circle id="Oval-Copy-5" fill="url(#linearGradient-1)" cx="30" cy="30" r="30"></circle>
                <g id="推送升级" transform="translate(13.000000, 15.000000)" fill="#FFFFFF">
                    <path d="M20.2047024,22.5229325 L20.2047024,21.1881318 L21.1351822,20.387252 C27.5156079,14.9145836 30.0412035,8.37405465 29.1107144,2.7678959 C23.6607777,1.83353507 17.0144801,4.36965554 11.5645435,10.7766941 L10.6340637,11.711055 L9.43773388,11.711055 C7.57677741,11.711055 5.98168031,12.1114949 4.38657387,13.1793336 L10.2352871,17.1837327 L9.03895727,19.3194133 C8.7731063,19.8533342 9.03895727,20.9211729 9.96943707,21.8555337 C10.8999169,22.7898946 12.0962467,23.0568535 12.6279468,22.7898946 L14.7547564,21.5885748 L18.7425225,27.5951735 C19.8059258,25.9934139 20.2047024,24.3916542 20.2047024,22.5229451 L20.2047024,22.5229325 Z M18.3437459,32 L13.8242673,25.1925215 C12.2291608,25.9934013 9.83650115,25.4594814 8.10845878,23.8577208 C6.38042577,22.1224801 5.8487257,19.7198313 6.77920238,18.1180716 L0,13.4462831 L0.531703186,12.9123622 C3.32313946,10.1092828 6.11457573,8.90796306 9.5706293,9.04145346 C16.8815442,0.498724937 25.5216937,-0.969544308 31.1045663,0.498724937 L31.3704172,0.632205011 L31.5033429,0.899164848 C32.9655227,6.5053236 31.5033429,15.0480521 22.9960981,22.3894296 C23.1290238,25.8598984 21.9326949,28.6629778 19.008332,31.4660572 L18.3437054,31.9999781 L18.3437459,32 Z M7.97555402,27.1947211 C6.91215076,28.2625598 3.98778791,28.7964807 3.98778791,28.7964807 C3.98778791,28.7964807 4.65241456,25.7264424 5.58289435,24.7920816 C6.38044758,23.9912018 7.57677741,23.8577208 8.37433063,24.5251218 C8.90603381,25.1925206 8.77310724,26.3938403 7.97555402,27.1947201 L7.97555402,27.1947211 Z M18.6095866,11.3106141 L18.6095866,11.3106144 C18.6095867,12.4163979 19.5022792,13.312814 20.6034696,13.312814 C21.7046601,13.3128138 22.5973527,12.4163979 22.5973527,11.3106144 C22.5973527,10.2048309 21.7046601,9.30841485 20.6034696,9.30841485 C19.5022792,9.30841485 18.6095866,10.2048309 18.6095866,11.3106144 L18.6095866,11.3106141 Z" id="Shape"></path>
                </g>
            </g>
        </g>
    </g>
</svg>