<?xml version="1.0" encoding="UTF-8"?>
<svg width="60px" height="60px" viewBox="0 0 60 60" version="1.1" xmlns="http://www.w3.org/2000/svg" xmlns:xlink="http://www.w3.org/1999/xlink">
    <!-- Generator: Sketch 52.5 (67469) - http://www.bohemiancoding.com/sketch -->
    <title>advantage_2_slice</title>
    <desc>Created with Sketch.</desc>
    <defs>
        <linearGradient x1="15.8072917%" y1="100%" x2="83.2356771%" y2="10.8919271%" id="linearGradient-1">
            <stop stop-color="#D049FF" offset="0%"></stop>
            <stop stop-color="#CF86FF" offset="100%"></stop>
        </linearGradient>
    </defs>
    <g id="Page-1" stroke="none" stroke-width="1" fill="none" fill-rule="evenodd">
        <g id="Artboard" transform="translate(-102.000000, -26.000000)">
            <g id="advantage_2" transform="translate(102.000000, 26.000000)">
                <circle id="Oval-Copy-2" fill="url(#linearGradient-1)" fill-rule="nonzero" cx="30" cy="30" r="30"></circle>
                <g id="安全" transform="translate(15.000000, 12.000000)">
                    <g id="Group" transform="translate(0.046883, 0.210942)">
                        <path d="M14.9531424,34.6328528 C10.0504023,34.6328528 0.9453136,27.1562816 0.9453136,20.0922109 L0.9453136,6.04141328 L2.33320584,5.99844448 C2.37617464,5.99844448 5.478522,5.91680376 8.70547888,4.64922416 C12.0140765,3.30000384 14.1367352,1.79179896 14.1367352,1.79179896 L14.9531424,1.17734512 L15.7695496,1.79179896 C15.7695496,1.79179896 17.9351771,3.34297264 21.2008059,4.64922416 C24.4277628,5.95547568 27.5301102,5.99844448 27.573079,5.99844448 L28.9609712,6.04141328 L28.9609712,20.0922109 C28.9609712,27.1562816 19.8558825,34.6328528 14.9531424,34.6328528 Z" id="Path" fill="url(#linearGradient-1)" fill-rule="nonzero"></path>
                        <path d="M14.9531424,35.5695726 C9.59493304,35.5695726 0.00429688,27.7664386 0.00429688,20.087914 L0.00429688,5.12617784 L2.30312768,5.05742776 C2.34609648,5.05742776 5.28945928,4.98008392 8.3574316,3.77266064 C11.5027478,2.4921904 13.569547,1.03554808 13.5867346,1.02265744 L14.9531424,0.00859376 L16.3324409,1.04414184 C16.3367378,1.04843872 18.4379121,2.53945608 21.5488532,3.7812544 C24.5953411,5.01445896 27.5472977,5.06172464 27.5773758,5.06172464 L29.897691,5.13047472 L29.897691,20.0922109 C29.9019879,27.7664386 20.3113518,35.5695726 14.9531424,35.5695726 Z M1.88203344,6.95235184 L1.88203344,20.0922109 C1.88203344,26.4902652 10.4070434,33.6918361 14.9531424,33.6918361 C19.4992414,33.6918361 28.0242514,26.4859683 28.0242514,20.0922109 L28.0242514,6.95235184 L27.5472977,6.9394612 C27.5086258,6.9394612 24.2344032,6.8964924 20.8527586,5.5214908 C17.5226766,4.189458 15.3183772,2.6210968 15.2281427,2.5566436 L14.9574393,2.35469024 L14.7039234,2.54375296 C14.5965014,2.6210968 12.4351707,4.1464892 9.06211992,5.5214908 C5.60313152,6.87930488 2.36758088,6.9394612 2.33750272,6.9394612 L1.88203344,6.95235184 Z" id="Shape" stroke="#FFFFFF" stroke-width="0.3" fill="#FFFFFF" fill-rule="nonzero"></path>
                        <path d="M4.77383368,9.60782368 L4.77383368,19.9676014 C4.77383368,24.9304978 12.0269671,30.649645 14.9531424,30.649645 C17.9179896,30.649645 25.1324511,24.9691697 25.1324511,19.9676014 L25.1324511,9.60782368 C23.882059,9.46602664 21.8109629,9.14376064 19.6668198,8.2500096 C17.5226766,7.35625856 15.8812685,6.39375744 14.9875174,5.8222724 C14.0937664,6.39375744 12.4179832,7.35625856 10.239465,8.2500096 C8.09532192,9.10508872 6.0586008,9.46172976 4.77383368,9.60782368 Z" id="Path" stroke="#FFFFFF"></path>
                        <path d="M14.9531424,31.5863649 C11.6402479,31.5863649 3.83281696,25.5062797 3.83281696,19.9676014 L3.83281696,8.7656352 L4.66641168,8.67110384 C5.91680376,8.53360368 7.83750912,8.19415016 9.88712088,7.37344608 C12.211733,6.41953872 13.8746255,5.4140688 14.4804856,5.0273496 L14.9875174,4.70078672 L15.4945493,5.0273496 C16.2679877,5.52578768 17.8879114,6.4882888 20.0277577,7.38203984 C21.5746345,8.02657184 23.2804958,8.44766608 25.2398731,8.67540072 L26.0734678,8.76993208 L26.0734678,19.9676014 C26.0734678,25.6308892 18.3562714,31.5863649 14.9531424,31.5863649 Z M5.71055352,10.4285278 L5.71055352,19.9633045 C5.71055352,24.2902626 12.4093894,29.7043314 14.9488455,29.7043314 C17.4883016,29.7043314 24.1871375,24.2902626 24.1871375,19.9633045 L24.1871375,10.4285278 C22.4039323,10.1664181 20.7625242,9.72383944 19.301585,9.11368248 C17.4195515,8.33165032 15.9156435,7.48946184 14.9832206,6.92227368 C14.1195477,7.44219616 12.5769678,8.30157216 10.5875123,9.11368248 C8.76133832,9.85274584 7.02969568,10.2308713 5.71055352,10.4285278 Z" id="Shape" stroke="#FFFFFF" stroke-width="0.3" fill="#FFFFFF" fill-rule="nonzero"></path>
                        <path d="M20.9773682,14.0679851 C20.6121334,13.7027503 20.014867,13.7027503 19.6496322,14.0679851 L13.3246249,20.3929925 L10.2566526,17.3250202 C9.89141776,16.9597854 9.29415144,16.9597854 8.92891664,17.3250202 C8.56368184,17.690255 8.56368184,18.2875213 8.92891664,18.6527561 L12.533999,22.2578384 C12.568374,22.309401 12.6070459,22.3566666 12.6500147,22.3996354 C12.8347806,22.5844013 13.0754058,22.6746358 13.3160311,22.6746358 L13.3418124,22.6746358 C13.5824377,22.6746358 13.823063,22.5844013 14.0078288,22.3996354 C14.0507976,22.3566666 14.0894695,22.309401 14.1238446,22.2578384 L20.9859619,15.395721 C21.3468998,15.0261894 21.3468998,14.4332199 20.9773682,14.0679851 Z" id="Path" fill="#FFFFFF"></path>
                    </g>
                </g>
            </g>
        </g>
    </g>
</svg>