<?xml version="1.0" encoding="UTF-8"?>
<svg width="60px" height="60px" viewBox="0 0 60 60" version="1.1" xmlns="http://www.w3.org/2000/svg" xmlns:xlink="http://www.w3.org/1999/xlink">
    <!-- Generator: Sketch 52.5 (67469) - http://www.bohemiancoding.com/sketch -->
    <title>advantage_5_slice</title>
    <desc>Created with Sketch.</desc>
    <defs>
        <linearGradient x1="19.1781902%" y1="85.041891%" x2="94.0365495%" y2="0%" id="linearGradient-1">
            <stop stop-color="#A08EFF" offset="0%"></stop>
            <stop stop-color="#8B3BFF" offset="100%"></stop>
        </linearGradient>
    </defs>
    <g id="Page-1" stroke="none" stroke-width="1" fill="none" fill-rule="evenodd">
        <g id="Artboard" transform="translate(-42.000000, -26.000000)" fill-rule="nonzero">
            <g id="advantage_5" transform="translate(42.000000, 26.000000)">
                <circle id="Oval-Copy-3" fill="url(#linearGradient-1)" cx="30" cy="30" r="30"></circle>
                <g id="文档-copy" transform="translate(18.000000, 14.000000)" fill="#FFFFFF" stroke="#FFFFFF">
                    <path d="M5.24340558,21.9923486 L20.8086661,21.9923486 L20.8086661,20.6947659 L5.24123863,20.6947659 L5.24123863,21.9945654 L5.24340558,21.9923486 Z M10.3891398,10.2919186 L5.19347668,10.2919186 L5.19347668,11.6870976 L10.3891398,11.6870976 L10.3891398,10.2897018 L10.3891398,10.2919186 Z M25.9999953,12.0885699 L25.9999953,10.8109505 L15.1331868,0.0288351465 L13.7002007,0.0288351465 L13.7132278,0 L2.71833179,0 C1.21586669,0 0,1.20663972 0,2.69719521 L0,28.3028048 C0,29.7933603 1.21586669,31 2.71833179,31 L23.286011,31 C24.7863032,31 26,29.7933603 26,28.3028048 L26,12.0885863 L25.9999953,12.0885699 Z M15.6173594,2.79476597 L23.4901034,10.354016 L16.9743521,10.354016 C16.2357785,10.3651205 15.628231,9.76245785 15.6173636,9.00792782 C15.6173622,9.0078306 15.6173608,9.00773338 15.6173594,9.00763615 L15.6173594,2.79698829 L15.6173594,2.79476597 Z M24.7428676,28.3515819 C24.7428676,29.0968597 24.1349342,29.6979612 23.3837031,29.6979612 L2.66620753,29.6979612 C1.92799892,29.7078384 1.3211164,29.1057026 1.30921302,28.3515819 L1.30921302,2.69717874 C1.30921302,1.951901 1.91714636,1.34857962 2.66837743,1.34857962 L14.1040251,1.34857962 L14.2994324,1.53711706 L14.2994324,9.00542112 C14.2994324,10.4937598 15.517469,11.7003995 17.0177641,11.7003995 L24.7385176,11.7003995 L24.7385176,28.3493633 L24.7428676,28.3515819 Z M5.19564363,16.8397155 L20.8108331,16.8397155 L20.8108331,15.4911164 L5.193447,15.4911164 L5.193447,16.8397155 L5.19564363,16.8397155 Z" id="Shape"></path>
                </g>
            </g>
        </g>
    </g>
</svg>