<?xml version="1.0" encoding="UTF-8"?>
<svg width="60px" height="60px" viewBox="0 0 60 60" version="1.1" xmlns="http://www.w3.org/2000/svg" xmlns:xlink="http://www.w3.org/1999/xlink">
    <!-- Generator: Sketch 52.5 (67469) - http://www.bohemiancoding.com/sketch -->
    <title>advantage_0_slice</title>
    <desc>Created with Sketch.</desc>
    <defs>
        <linearGradient x1="19.1781902%" y1="85.041891%" x2="94.0365495%" y2="0%" id="linearGradient-1">
            <stop stop-color="#A08EFF" offset="0%"></stop>
            <stop stop-color="#8B3BFF" offset="100%"></stop>
        </linearGradient>
    </defs>
    <g id="Page-1" stroke="none" stroke-width="1" fill="none" fill-rule="evenodd">
        <g id="Artboard" transform="translate(-38.000000, -26.000000)" fill-rule="nonzero">
            <g id="advantage_0" transform="translate(38.000000, 26.000000)">
                <circle id="Oval" fill="url(#linearGradient-1)" cx="30" cy="30" r="30"></circle>
                <g id="图表" transform="translate(15.000000, 14.000000)" fill="#FFFFFF" stroke="#FFFFFF">
                    <path d="M27.3489693,3.69516055 C30.494348,6.51130133 32.2031625,10.7750438 31.9714122,14.9725799 C26.9890627,15.0007842 22.0048694,15.0007842 17.0188323,14.9725799 C16.9930806,9.98901162 16.9930806,5.00481832 17.0188323,0.0200000233 L17.0188322,0.0200000308 C20.8144928,-0.181320829 24.5333409,1.14173259 27.3489692,3.69512931 L27.3489693,3.69516055 Z M28.1546328,7.24707093 C26.778753,5.00666833 24.527316,3.4358165 22.1085007,2.48665914 C21.0766965,2.00724925 19.947767,1.77365522 18.8104345,1.80423651 C18.8018505,5.59711592 18.8018505,9.39118284 18.8104345,13.186531 L30.1908852,13.186531 C30.2626222,11.0362598 29.2399091,9.04233868 28.1564953,7.2488991 L28.1546328,7.24707093 Z M28.1454357,17.1431137 C28.2410852,20.0972078 27.5090006,23.0972769 25.8737612,25.576811 C21.6505375,32.0945686 12.9432461,33.9546646 6.42548854,29.7314096 C-0.0922690437,25.508186 -1.95236496,16.8008946 2.27088996,10.283137 C3.62862904,8.18772207 5.51979999,6.49160135 7.75005258,5.36903754 C9.93343325,4.24515811 12.4111205,3.79266071 14.8556859,3.86072016 C14.8869559,8.27531905 14.8556859,12.7046055 14.8704011,17.1283919 C19.285,17.1412677 23.7161302,17.1081583 28.1399166,17.1431071 L28.1454357,17.1431137 Z M26.6132058,18.7047749 C22.1802319,18.6808626 17.7454142,18.7047749 13.3105653,18.6937384 C13.2995289,14.2589207 13.3216018,9.82410309 13.2995289,5.39109793 C10.7335509,5.77553588 8.12711661,6.5701618 6.1423643,8.30840445 C5.52064171,8.95219895 4.86949095,9.56656216 4.24960898,10.2121942 C2.43410999,12.6273407 1.40587754,15.6660443 1.54935271,18.6955478 C1.82710397,20.9157191 2.46906003,23.146928 3.7768803,24.9936801 C4.34158096,25.9225843 5.22817574,26.5810913 5.95474221,27.3720391 L5.95474354,27.3720403 C7.30137948,28.5559635 8.89681258,29.4221989 10.6231552,29.9067495 C12.2013696,30.2875062 13.8439715,30.6958567 15.4681609,30.3463688 C18.2603891,29.9527339 21.0360736,28.7534388 22.9251383,26.6105207 C25.191294,24.6165996 26.1735483,21.6017961 26.6039551,18.7010427 L26.6132058,18.7047749 Z" id="Shape"></path>
                </g>
            </g>
        </g>
    </g>
</svg>