<?xml version="1.0" encoding="UTF-8"?>
<svg width="60px" height="60px" viewBox="0 0 60 60" version="1.1" xmlns="http://www.w3.org/2000/svg" xmlns:xlink="http://www.w3.org/1999/xlink">
    <!-- Generator: Sketch 52.5 (67469) - http://www.bohemiancoding.com/sketch -->
    <title>advantage_3_slice</title>
    <desc>Created with Sketch.</desc>
    <defs>
        <linearGradient x1="179.609375%" y1="-25.9375%" x2="50%" y2="100%" id="linearGradient-1">
            <stop stop-color="#115CF1" offset="0%"></stop>
            <stop stop-color="#42C8FB" offset="100%"></stop>
        </linearGradient>
    </defs>
    <g id="Page-1" stroke="none" stroke-width="1" fill="none" fill-rule="evenodd">
        <g id="Artboard" transform="translate(-39.000000, -26.000000)" fill-rule="nonzero">
            <g id="advantage_3" transform="translate(39.000000, 26.000000)">
                <circle id="Oval-Copy-4" fill="url(#linearGradient-1)" cx="30" cy="30" r="30"></circle>
                <g id="手机" transform="translate(19.000000, 14.000000)" stroke="#FFFFFF">
                    <path d="M10.9040322,29.1731006 C9.75222344,29.1731006 8.82205608,28.2611006 8.82205608,27.1383595 C8.82205608,26.0156184 9.75585691,25.1036184 10.9040322,25.1036184 C12.0522076,25.1036184 12.9860084,26.0156184 12.9860084,27.1383595 C12.9860084,28.2611006 12.055841,29.1731006 10.9040322,29.1731006 Z M0,2.72146623 C0,1.22084466 1.21357773,0 2.7141993,0 L19.1629011,0 C20.6635226,0 21.8771003,1.2172112 21.8771003,2.72146623 L21.8771003,29.8452919 C21.8771003,31.3459134 20.6635226,32.5667581 19.1629011,32.5667581 L2.7141993,32.5667581 C1.21357773,32.5667581 0,31.3495469 0,29.8452919 L0,2.72146623 Z M19.8459927,24.0826144 L2.03474111,24.0826144 L2.03474111,29.8416584 C2.03474111,30.2195389 2.33995227,30.5283835 2.7141993,30.5283835 L19.1629011,30.5283835 C19.5371481,30.5283835 19.8423592,30.2231723 19.8423592,29.8416584 C19.8459927,29.8452919 19.8459927,24.0826144 19.8459927,24.0826144 Z M19.8459927,22.0478733 L19.8459927,2.71783276 C19.8459927,2.33995227 19.5407815,2.03110764 19.1665345,2.03110764 L2.7141993,2.03110764 C2.33995227,2.03110764 2.03474111,2.3363188 2.03474111,2.71783276 L2.03474111,22.0478733 L19.8459927,22.0478733 Z" id="Shape" stroke-width="0.5" fill="#FFFFFF"></path>
                    <polyline id="Path-78" stroke-width="2" stroke-linecap="round" stroke-linejoin="round" points="4.7826087 11.7631624 9.43490999 16.0525645 14.93491 6.69565217 17.6517493 13.6762058"></polyline>
                </g>
            </g>
        </g>
    </g>
</svg>