<?xml version="1.0" encoding="UTF-8"?>
<svg width="60px" height="60px" viewBox="0 0 60 60" version="1.1" xmlns="http://www.w3.org/2000/svg" xmlns:xlink="http://www.w3.org/1999/xlink">
    <!-- Generator: Sketch 52.5 (67469) - http://www.bohemiancoding.com/sketch -->
    <title>advantage_1_slice</title>
    <desc>Created with Sketch.</desc>
    <defs>
        <linearGradient x1="179.609375%" y1="-25.9375%" x2="50%" y2="100%" id="linearGradient-1">
            <stop stop-color="#115CF1" offset="0%"></stop>
            <stop stop-color="#42C8FB" offset="100%"></stop>
        </linearGradient>
    </defs>
    <g id="Page-1" stroke="none" stroke-width="1" fill="none" fill-rule="evenodd">
        <g id="Artboard" transform="translate(-40.000000, -26.000000)" fill-rule="nonzero">
            <g id="advantage_1" transform="translate(40.000000, 26.000000)">
                <circle id="Oval-Copy-6" fill="url(#linearGradient-1)" cx="30" cy="30" r="30"></circle>
                <g id="丰富展示视角1" transform="translate(13.000000, 13.000000)" fill="#FFFFFF" stroke="#FFFFFF">
                    <path d="M17.6051211,0.210209749 C8.06275343,0.210209749 0.210193491,8.06276969 0.210193491,17.6051374 C0.210193491,27.1475051 8.06275343,35.000065 17.6051211,35.000065 C27.1474888,35.000065 35.0000488,27.1475051 35.0000488,17.6051374 C35.0000488,8.06276969 27.1474888,0.210209749 17.6051211,0.210209749 Z M6.47236464,23.7678896 C3.0927806,22.1774973 1.20417338,19.8913191 1.20417338,17.6051024 C1.20417338,14.5237159 4.38495795,11.9393402 9.05673332,10.4483354 C8.46033491,12.6351261 8.16213745,15.0206988 8.16213745,17.6051024 C8.16213745,19.1954947 8.26153683,20.686489 8.46033596,22.1774658 C7.56574008,22.376265 6.86994367,22.9726637 6.47234472,23.7678581 L6.47236464,23.7678896 Z M9.15615228,23.0720932 C10.2495476,23.0720932 11.1441435,23.9666891 11.1441435,25.0600844 C11.1441435,26.1534798 10.2495476,27.0480756 9.15615228,27.0480756 C8.06275693,27.0480756 7.16816105,26.1534798 7.16816105,25.0600844 C7.16816109,23.9666891 8.06275693,23.0720932 9.15615228,23.0720932 Z M11.7405419,26.4516772 C13.6291317,26.8492762 15.6171124,27.0480756 17.6051071,27.0480756 C20.1894968,27.0480756 22.5750765,26.7498771 24.7618742,26.1534798 C23.2708799,30.8252621 20.5870818,34.0060397 17.6051071,34.0060397 C15.0207175,34.0060397 12.5357189,31.6204495 10.845946,27.4456816 C11.243545,27.2468824 11.5417425,26.8492832 11.7405419,26.4516877 L11.7405419,26.4516772 Z M17.6051071,26.0540783 C15.7165174,26.0540783 13.8279207,25.8552792 12.1381479,25.5570813 L12.1381479,25.0600844 C12.1381479,23.5690901 10.9453545,22.2768988 9.45436023,22.0780993 C9.2555611,20.587105 9.15616172,19.0961142 9.15616172,17.6051199 C9.15616172,14.9213323 9.45436023,12.3369286 10.1501556,10.1501659 C12.4363443,9.55376748 14.921322,9.15617203 17.6051096,9.15617203 C19.2949034,9.15617203 20.9846936,9.25557142 22.5750789,9.55377098 L22.5750789,9.65317071 C22.5750789,11.3429645 23.8672738,12.6351558 25.557064,12.6351558 L25.6564634,12.6351558 C25.9546619,14.2255481 26.0540624,15.9153419 26.0540624,17.6051252 C26.0540624,20.2889128 25.7558639,22.8733164 25.0600685,25.0600792 C22.8732778,25.7558756 20.2889021,26.054073 17.6051145,26.054073 L17.6051071,26.0540783 Z M24.0660813,7.06876185 C23.4696829,7.36696036 23.0720874,7.96335773 22.7738864,8.55975614 C21.0840927,8.26155763 19.3943024,8.1621572 17.6051141,8.1621572 C15.0207245,8.1621572 12.6351448,8.46035571 10.4483471,9.05675308 C11.9393414,4.38497072 14.5237206,1.20419313 17.6051141,1.20419313 C20.0901023,1.20419313 22.4756995,3.39098384 24.0660883,7.06875835 L24.0660813,7.06876185 Z M25.5570756,11.6411253 C24.4636802,11.6411253 23.5690843,10.7465294 23.5690843,9.65313402 C23.5690843,8.55973867 24.4636802,7.66514279 25.5570756,7.66514279 C26.6504709,7.66514279 27.5450668,8.55973867 27.5450668,9.65313402 C27.5450668,10.7465294 26.6504709,11.6411253 25.5570756,11.6411253 Z M26.6504709,12.4363231 C27.2468693,12.237524 27.8432643,11.7405267 28.1414652,11.1441283 C31.9186517,12.7345206 34.0060304,15.1201178 34.0060304,17.6051024 C34.0060304,20.686489 30.8252459,23.2708647 26.1534705,24.7618695 C26.6504674,22.5750788 27.0480664,20.1895061 27.0480664,17.6051024 C27.0480664,15.8159107 26.948667,14.1261169 26.6504674,12.4363301 L26.6504709,12.4363231 Z M33.509051,13.728518 C32.4156556,12.3369252 30.7258653,11.1441283 28.4396627,10.1501345 C28.4396627,9.95133533 28.5390621,9.75253551 28.5390621,9.55373603 C28.5390621,7.86394226 27.2468672,6.57175093 25.557077,6.57175093 C25.3582778,6.57175093 25.159478,6.57175093 24.9606785,6.67115032 C23.9666847,4.48435962 22.7738878,2.69516087 21.382295,1.60176203 C27.4456632,3.09275632 32.1174456,7.76454917 33.509051,13.728518 Z M13.8279766,1.70113066 C11.9393519,3.29155789 10.2495581,5.97534203 9.25557823,9.35492258 C5.87599418,10.3489165 3.19221004,11.9393122 1.60182125,13.927286 C3.09281555,7.8639178 7.8639924,3.09275143 13.8279766,1.70113066 Z M1.70120177,21.3822501 C2.69519913,22.6744698 4.28559491,23.7678651 6.27356867,24.761859 L6.27356867,25.0600575 C6.27356867,26.7498513 7.56576349,28.0420426 9.25555376,28.0420426 C9.55375227,28.0420426 9.85195218,27.9426432 10.0507517,27.9426432 C11.0447455,30.4276314 12.3369403,32.4156226 13.8279381,33.6084055 C7.76456995,32.1174112 3.09278759,27.3462343 1.70120177,21.3822501 Z M21.3822797,33.5090463 C23.2709043,31.918619 24.9606981,29.2348349 25.954678,25.8552543 C29.334262,24.8612605 32.0180462,23.2708647 33.608435,21.2828909 C32.1174407,27.3462591 27.3462638,32.1174255 21.3822797,33.5090463 Z" id="Shape"></path>
                </g>
            </g>
        </g>
    </g>
</svg>