<?xml version="1.0" encoding="UTF-8"?>
<svg width="352px" height="207px" viewBox="0 0 352 207" version="1.1" xmlns="http://www.w3.org/2000/svg" xmlns:xlink="http://www.w3.org/1999/xlink">
    <!-- Generator: Sketch 52.5 (67469) - http://www.bohemiancoding.com/sketch -->
    <title>panel_chart_slice</title>
    <desc>Created with Sketch.</desc>
    <defs>
        <linearGradient x1="135.874023%" y1="-8.34960938%" x2="8.64746094%" y2="100%" id="linearGradient-1">
            <stop stop-color="#2984FF" offset="0%"></stop>
            <stop stop-color="#A5F9FF" offset="100%"></stop>
        </linearGradient>
        <linearGradient x1="19.1781902%" y1="85.041891%" x2="94.0365495%" y2="0%" id="linearGradient-2">
            <stop stop-color="#A08EFF" offset="0%"></stop>
            <stop stop-color="#764DFF" offset="100%"></stop>
        </linearGradient>
        <linearGradient x1="100%" y1="-40.3949288%" x2="3.73328137%" y2="100%" id="linearGradient-3">
            <stop stop-color="#1262FF" offset="0%"></stop>
            <stop stop-color="#8BDFFF" offset="100%"></stop>
        </linearGradient>
        <linearGradient x1="92.7264636%" y1="8.13987446%" x2="14.0541655%" y2="87.5205352%" id="linearGradient-4">
            <stop stop-color="#3FA5FF" offset="0%"></stop>
            <stop stop-color="#BAE7FF" offset="100%"></stop>
        </linearGradient>
        <linearGradient x1="10.3890728%" y1="0%" x2="100%" y2="100%" id="linearGradient-5">
            <stop stop-color="#FFB8B8" offset="0%"></stop>
            <stop stop-color="#FF6D6D" offset="100%"></stop>
        </linearGradient>
        <linearGradient x1="10.9844632%" y1="20.2045016%" x2="110.984463%" y2="79.7954984%" id="linearGradient-6">
            <stop stop-color="#2984FF" offset="0%"></stop>
            <stop stop-color="#A5F9FF" offset="100%"></stop>
        </linearGradient>
        <linearGradient x1="55.1734561%" y1="97.1277574%" x2="13.0347842%" y2="17.0151654%" id="linearGradient-7">
            <stop stop-color="#5F46E4" offset="0%"></stop>
            <stop stop-color="#AC85FA" offset="100%"></stop>
        </linearGradient>
        <linearGradient x1="30.4995425%" y1="90.7621904%" x2="56.2442551%" y2="-1.92270924%" id="linearGradient-8">
            <stop stop-color="#5F46E4" offset="0%"></stop>
            <stop stop-color="#AC85FA" offset="100%"></stop>
        </linearGradient>
        <linearGradient x1="92.7264636%" y1="8.13987446%" x2="14.0541655%" y2="87.5205352%" id="linearGradient-9">
            <stop stop-color="#83C5FE" offset="0%"></stop>
            <stop stop-color="#D5F1FF" offset="100%"></stop>
        </linearGradient>
    </defs>
    <g id="Page-1" stroke="none" stroke-width="1" fill="none" fill-rule="evenodd">
        <g id="Artboard" transform="translate(-835.000000, -1165.000000)">
            <g id="panel_chart" transform="translate(835.000000, 1165.000000)">
                <g id="Group-13" transform="translate(249.000000, 36.000000)">
                    <path d="M0,0 L0,59.9461178 C0,61.0752154 0.908245949,62 2.0128694,62 L100.987131,62 C102.091754,62 103,61.0752154 103,59.9461178 L103,0 L0,0 Z" id="Fill-17" fill="url(#linearGradient-1)"></path>
                    <rect id="Rectangle-14" fill="#FFFFFF" fill-rule="nonzero" x="11.6165414" y="15.5" width="6.19548872" height="35.65"></rect>
                    <rect id="Rectangle-14-Copy" fill="#FFFFFF" fill-rule="nonzero" x="26.6406015" y="11.625" width="6.19548872" height="39.525"></rect>
                    <rect id="Rectangle-14-Copy-2" fill="#FFFFFF" fill-rule="nonzero" x="41.6646617" y="24.025" width="6.19548872" height="27.125"></rect>
                    <rect id="Rectangle-14-Copy-3" fill="#FFFFFF" fill-rule="nonzero" x="56.6887218" y="19.375" width="6.19548872" height="31.775"></rect>
                    <rect id="Rectangle-14-Copy-4" fill="#FFFFFF" fill-rule="nonzero" x="71.712782" y="24.025" width="6.19548872" height="27.125"></rect>
                    <rect id="Rectangle-14-Copy-5" fill="#FFFFFF" fill-rule="nonzero" x="86.7368421" y="11.625" width="6.19548872" height="39.525"></rect>
                    <polyline id="Path-55" stroke="#4CA5FF" stroke-width="1.5" fill-rule="nonzero" points="14.3754699 27.5972656 30.2612415 18.7301758 45.0579623 27.5972656 59.8924974 21.999707 74.3451084 36.4900879 90.1378568 14.4109131"></polyline>
                    <ellipse id="Oval-6" fill="#4CA5FF" fill-rule="nonzero" cx="14.7142857" cy="27.125" rx="1.54887218" ry="1.55"></ellipse>
                    <ellipse id="Oval-6" fill="#4CA5FF" fill-rule="nonzero" cx="30.2030075" cy="18.6" rx="1.54887218" ry="1.55"></ellipse>
                    <ellipse id="Oval-6" fill="#4CA5FF" fill-rule="nonzero" cx="44.9172932" cy="27.125" rx="1.54887218" ry="1.55"></ellipse>
                    <ellipse id="Oval-6" fill="#4CA5FF" fill-rule="nonzero" cx="59.6315789" cy="22.475" rx="1.54887218" ry="1.55"></ellipse>
                    <ellipse id="Oval-6" fill="#4CA5FF" fill-rule="nonzero" cx="74.3458647" cy="36.425" rx="1.54887218" ry="1.55"></ellipse>
                    <ellipse id="Oval-6" fill="#4CA5FF" fill-rule="nonzero" cx="89.8345865" cy="14.725" rx="1.54887218" ry="1.55"></ellipse>
                </g>
                <ellipse id="Oval" fill="url(#linearGradient-2)" fill-rule="nonzero" cx="149" cy="188" rx="143" ry="19"></ellipse>
                <path d="M171.82785,81.3675762 C174.746811,76.5633437 167.317948,78.1965404 168.378633,72.4922982 C169.442088,66.4870076 177.09949,86.4697213 174.443624,81.3675762 C171.790526,77.1623048 161.624537,59.4011507 163.571424,44.1770002 C165.518311,28.9528496 163.571424,27.7297024 160.426177,22.8073685 C157.241352,19.8031552 153.52757,18 149.284829,18 C145.028242,18 140.719407,20.7741962 137.909499,24.5386583 C135.09959,28.3031204 135.019193,36.0897908 135.019193,44.1770002 C135.019193,52.2642096 132.296617,91.7028488 126.727962,82.6618876 C121.159306,73.6209263 125.667276,68.8452488 126.727962,74.8505395 C127.791416,80.5547817 123.809,74.6599007 126.727962,79.4641333 L171.82785,81.3675762 Z" id="Fill-1" fill="#444444"></path>
                <path d="M174,71.9394376 C169.041794,61.6741168 159.375426,58 148.260628,58 C137.493453,58 128.083229,62.4412401 123,72 L174,71.9394376 Z" id="Fill-3" fill="url(#linearGradient-3)"></path>
                <path d="M154.398315,50 C154.398315,50 152.254309,58.1363636 159,60.9318182 C159,60.9318182 157.159326,65 149.803524,65 L150.199923,65 C142.840674,65 141,60.9318182 141,60.9318182 C147.745691,58.1363636 145.598238,50 145.598238,50 L154.398315,50 Z" id="Fill-5" fill="#F6CCB8"></path>
                <path d="M149.5,51 C142.594926,51 137,43.6141366 137,34.5 C137,25.3858634 142.594926,18 149.5,18 C156.405074,18 162,25.3858634 162,34.5 C162,43.6141366 156.405074,51 149.5,51 Z" id="Fill-7" fill="#F6CCB8"></path>
                <path d="M162.988232,34.9516359 C153.403751,34.1474786 149.997219,26.01584 149.997219,26.01584 C143.611414,36.1996881 137.011979,34.9516359 137.011979,34.9516359 C137.011979,34.9516359 136.108381,18 149.997219,18 C163.886056,18 162.988232,34.9516359 162.988232,34.9516359" id="Fill-52" fill="#444444"></path>
                <path d="M181,106.497012 C181,105.669323 180.564108,105 180.019975,105 L117.980025,105 C117.438817,105 117,105.669323 117,106.497012 C117,107.327689 117.438817,108 117.980025,108 L180.019975,108 C180.564108,108 181,107.327689 181,106.497012" id="Fill-57" fill="#7B91FF"></path>
                <path d="M181,72.7893099 C181,71.8059674 180.233497,71 179.291709,71 L118.70532,71 C117.766503,71 117,71.8059674 117,72.7893099 L117,103.21069 C117,104.194033 117.766503,105 118.70532,105 L179.291709,105 C180.233497,105 181,104.194033 181,103.21069 L181,72.7893099 Z" id="Fill-58" fill="#C9C3FF"></path>
                <path d="M180,75.81844 C180,74.8205156 179.188171,74 178.197677,74 L120.799188,74 C119.808694,74 119,74.8205156 119,75.81844 L119,101.178392 C119,102.179484 119.808694,103 120.799188,103 L178.197677,103 C179.188171,103 180,102.179484 180,101.178392 L180,75.81844 Z" id="Fill-59" fill="#FFFFFF"></path>
                <path d="M156,88 C156,90.2111801 155.29698,92 154.43584,92 L145.566592,92 C144.700588,92 144,90.2111801 144,88 C144,85.7888199 144.700588,84 145.566592,84 L154.43584,84 C155.29698,84 156,85.7888199 156,88" id="Fill-60" fill="#C6D8ED"></path>
                <path d="M227,93.7403101 C227,93.3333333 226.715092,93 226.367239,93 L200.632761,93 C200.284908,93 200,93.3333333 200,93.7403101 L200,100.25969 C200,100.666667 200.284908,101 200.632761,101 L226.367239,101 C226.715092,101 227,100.666667 227,100.25969 L227,93.7403101 Z" id="Fill-61" fill="#7B91FF"></path>
                <path d="M101,103.74031 C101,103.333333 100.715092,103 100.367239,103 L74.6327607,103 C74.284908,103 74,103.333333 74,103.74031 L74,110.25969 C74,110.666667 74.284908,111 74.6327607,111 L100.367239,111 C100.715092,111 101,110.666667 101,110.25969 L101,103.74031 Z" id="Fill-61-Copy" fill="#7B91FF"></path>
                <path d="M228,85.7403101 C228,85.3333333 227.694025,85 227.320451,85 L199.683106,85 C199.309533,85 199,85.3333333 199,85.7403101 L199,92.2596899 C199,92.6666667 199.309533,93 199.683106,93 L227.320451,93 C227.694025,93 228,92.6666667 228,92.2596899 L228,85.7403101 Z" id="Fill-62" fill="url(#linearGradient-4)"></path>
                <path d="M228,79.7399516 C228,79.3331719 227.715092,79 227.367239,79 L201.632761,79 C201.284908,79 201,79.3331719 201,79.7399516 L201,86.2561743 C201,86.662954 201.284908,87 201.632761,87 L227.367239,87 C227.715092,87 228,86.662954 228,86.2561743 L228,79.7399516 Z" id="Fill-63" fill="#C9C3FF"></path>
                <path d="M102,95.7399516 C102,95.3331719 101.715092,95 101.367239,95 L75.6327607,95 C75.284908,95 75,95.3331719 75,95.7399516 L75,102.256174 C75,102.662954 75.284908,103 75.6327607,103 L101.367239,103 C101.715092,103 102,102.662954 102,102.256174 L102,95.7399516 Z" id="Fill-63-Copy" fill="#C9C3FF"></path>
                <path d="M227,84.0924939 C227,84.0416465 226.736196,84 226.41411,84 L202.58589,84 C202.263804,84 202,84.0416465 202,84.0924939 L202,84.9070218 C202,84.9578692 202.263804,85 202.58589,85 L226.41411,85 C226.736196,85 227,84.9578692 227,84.9070218 L227,84.0924939 Z" id="Fill-63" fill="#FFFFFF"></path>
                <path d="M101,97.0924939 C101,97.0416465 100.736196,97 100.41411,97 L76.5858896,97 C76.2638037,97 76,97.0416465 76,97.0924939 L76,97.9070218 C76,97.9578692 76.2638037,98 76.5858896,98 L100.41411,98 C100.736196,98 101,97.9578692 101,97.9070218 L101,97.0924939 Z" id="Fill-63-Copy-2" fill="#FFFFFF"></path>
                <polygon id="Fill-64" fill="#4D2FB6" points="58 112 242 112 242 109 58 109"></polygon>
                <polygon id="Fill-65" fill="#623AEF" points="62 199 71 199 71 112 62 112"></polygon>
                <polygon id="Fill-66" fill="#623AEF" points="226 199 235 199 235 112 226 112"></polygon>
                <polygon id="Fill-67" fill="#9982E8" points="73 115 226 115 226 113 73 113"></polygon>
                <polygon id="Fill-68" fill="#7142D1" points="196 107 229 107 229 99 196 99"></polygon>
                <polygon id="Fill-69" fill="#FFFFFF" points="201 105 219 105 219 103 201 103"></polygon>
                <path d="M200,99 L200,107" id="Stroke-70" stroke="#C6D8ED" stroke-width="0.192"></path>
                <path d="M220,99 L220,107" id="Stroke-71" stroke="#C6D8ED" stroke-width="0.192"></path>
                <path d="M225,103.99865 C225,104.551957 224.551351,105 223.997297,105 C223.448649,105 223,104.551957 223,103.99865 C223,103.445344 223.448649,103 223.997297,103 C224.551351,103 225,103.445344 225,103.99865" id="Fill-72" fill="#FFFFFF"></path>
                <path d="M56,2.012 L56.036,2 C56.024,2.006 56.012,2.008 56,2.012" id="Fill-75" fill="#EF8B7B"></path>
                <g id="Group-11" transform="translate(0.000000, 22.000000)">
                    <polygon id="Fill-73" fill="url(#linearGradient-5)" points="0 71 50 71 50 0 0 0"></polygon>
                    <polygon id="Fill-80" fill="#FFFFFF" points="6.06060606 64.1290323 46.2121212 64.1290323 46.2121212 61.8387097 6.06060606 61.8387097"></polygon>
                    <path d="M24.3165592,22.1397849 L37.1212121,19.2433278 C35.7210398,13.0250371 30.431158,8.39784946 24.1165346,8.39784946 C22.845609,8.39784946 21.6177655,8.58943127 20.4545455,8.93687623 L24.3165592,22.1397849 Z" id="Fill-76" fill="#9013FE"></path>
                    <path d="M25.7575758,21.5449699 L35.1157018,28.2473118 C36.3853973,26.2892603 37.1212121,23.9384602 37.1212121,21.4083616 C37.1212121,20.6171722 37.0492904,19.8373668 36.9082131,19.0860215 L25.7575758,21.5449699 Z" id="Fill-77" fill="#B38CFF"></path>
                    <path d="M24.9316995,21.218425 L20.8186217,8.39784946 C15.3270898,10.1610236 11.3636364,15.1500397 11.3636364,21.0344416 C11.3636364,28.393777 17.5555375,34.3548387 25.1959298,34.3548387 C29.7801651,34.3548387 33.8454904,32.2022331 36.3636364,28.8843994 L24.9316995,21.218425 Z" id="Fill-78" fill="#FFFFFF"></path>
                    <polygon id="Fill-79" fill="#FFFFFF" points="6.06060606 45.0430108 46.2121212 45.0430108 46.2121212 42.7526882 6.06060606 42.7526882"></polygon>
                    <polygon id="Fill-81" fill="#FFFFFF" points="6.06060606 51.4050179 31.8181818 51.4050179 31.8181818 49.1146953 6.06060606 49.1146953"></polygon>
                    <polygon id="Fill-82" fill="#FFFFFF" points="6.06060606 57.7670251 17.4242424 57.7670251 17.4242424 55.4767025 6.06060606 55.4767025"></polygon>
                </g>
                <path d="M127.518234,183.376239 C127.518234,183.376239 125.287743,183.923496 126.233823,187.76502 C127.179904,191.606545 147.012308,190.522385 146.935281,184.307465 C146.845417,176.803675 148.363477,176.385298 140.603077,177.410996 C140.603077,177.410996 132.967845,182.44164 127.518234,183.376239 Z" id="Fill-91" fill="url(#linearGradient-6)"></path>
                <polygon id="Fill-92" fill="#F6CCB8" points="145.104833 179 138.060031 179 134 143 148 143"></polygon>
                <path d="M170.942786,183.171817 C170.942786,183.171817 172.713856,184.216454 172.997197,187.925315 C173.280539,191.634176 151.986151,190.353969 152.063767,184.216454 C152.157552,176.80612 150.624645,176.392954 158.447647,177.405877 C158.447647,177.405877 165.448251,182.248857 170.942786,183.171817 Z" id="Fill-93" fill="url(#linearGradient-6)"></path>
                <polygon id="Fill-94" fill="#F6CCB8" points="159.104833 179 152.060031 179 148 143 162 143"></polygon>
                <g id="Group-12" transform="translate(45.000000, 0.000000)">
                    <polygon id="Fill-105" fill="#FFFFFF" points="0 51 43 51 43 0 0 0"></polygon>
                    <path d="M5.375,9.75 L40.3693783,9.75" id="Stroke-106" stroke="#5E66FF" stroke-width="1.192"></path>
                    <path d="M5.375,16.5 L23.0357143,16.5" id="Stroke-107" stroke="#5E66FF" stroke-width="1.192"></path>
                    <path d="M5.375,25.5 L29.6231203,25.5" id="Stroke-108" stroke="#5E66FF" stroke-width="1.192"></path>
                    <path d="M5.375,33.75 L33.4628653,33.75" id="Stroke-109" stroke="#5E66FF" stroke-width="1.192"></path>
                    <path d="M5.375,42 L29.6143822,42" id="Stroke-110" stroke="#5E66FF" stroke-width="1.192"></path>
                </g>
                <path d="M33.3064326,184 C33.3064326,184 9.72459558,164.890541 23.113239,158.5 C31.270776,154.605375 39.4174869,175.325195 39.4174869,175.325195 C39.4174869,175.325195 35.6350223,133 48.778551,133 C63.8291917,133 46.841547,184 46.841547,184 L33.3064326,184 Z" id="Fill-111" fill="url(#linearGradient-7)" fill-rule="nonzero"></path>
                <path d="M247.978648,184 C247.978648,184 228.292028,130.814631 241.643267,126.524274 C254.991265,122.233917 257.68741,144.867993 255.904218,172.747318 C255.904218,172.747318 261.766445,146.816527 271.385951,144.061868 C281.011942,141.30081 278.410071,159.682237 262.412771,184 L247.978648,184 Z" id="Fill-118" fill="url(#linearGradient-8)" fill-rule="nonzero"></path>
                <path d="M138.305028,178.229271 C137.28636,179.723986 138.819142,180.272407 142.903375,179.874535 C146.987608,179.476663 148.017932,178.851818 145.994348,178 L138.305028,178.229271 Z" id="Path-46" fill="#FFFFFF" fill-rule="nonzero"></path>
                <path d="M153.355245,178 C150.908636,179.006051 151.774654,179.649023 155.953299,179.928916 C160.131943,180.208809 161.715665,179.662146 160.704462,178.288929 L153.355245,178 Z" id="Path-46" fill="#FFFFFF" fill-rule="nonzero" transform="translate(156.500000, 179.000000) scale(-1, 1) translate(-156.500000, -179.000000) "></path>
                <path d="M49,141 C45.6666667,156.043385 44,169.376718 44,181" id="Path-48" stroke="#7D4FDD" stroke-linecap="round" stroke-linejoin="round" fill-rule="nonzero"></path>
                <path d="M42,148 C44.1952165,150.179996 47.1952165,150.577848 51,149.193558" id="Path-49" stroke="#7D4FDD" stroke-linecap="round" stroke-linejoin="round" fill-rule="nonzero"></path>
                <path d="M40,156 C42.3934602,158.284937 46.0601268,158.612023 51,156.981256" id="Path-50" stroke="#7D4FDD" stroke-linecap="round" stroke-linejoin="round" fill-rule="nonzero"></path>
                <path d="M245,136 C245.486618,149.381589 247.153285,163.714923 250,179" id="Path-51" stroke="#7D4FDD" stroke-linecap="round" stroke-linejoin="round" fill-rule="nonzero"></path>
                <path d="M239,145.396207 C243.874381,149.537522 247.874381,148.738787 251,143" id="Path-52" stroke="#7D4FDD" stroke-linecap="round" stroke-linejoin="round" fill-rule="nonzero"></path>
                <path d="M242,160.735453 C246.247887,162.876969 249.914553,162.298485 253,159" id="Path-53" stroke="#7D4FDD" stroke-linecap="round" stroke-linejoin="round" fill-rule="nonzero"></path>
                <path d="M269,153 C263.761786,161.434987 260.095119,171.101653 258,182" id="Path-54" stroke="#7D4FDD" stroke-linecap="round" stroke-linejoin="round" fill-rule="nonzero"></path>
                <path d="" id="Path-57" stroke="#979797" fill-rule="nonzero"></path>
                <path d="M73,113 L73,154.998304 C133.943594,144.584405 184.923098,144.584405 225.938511,154.998304 C226.020496,155.176946 226.020496,141.24613 225.938511,113.205855 L73,113 Z" id="Path-64" fill="url(#linearGradient-9)" fill-rule="nonzero"></path>
            </g>
        </g>
    </g>
</svg>