<?xml version="1.0" encoding="UTF-8"?>
<svg width="79px" height="79px" viewBox="0 0 79 79" version="1.1" xmlns="http://www.w3.org/2000/svg" xmlns:xlink="http://www.w3.org/1999/xlink">
    <!-- Generator: Sketch 52.5 (67469) - http://www.bohemiancoding.com/sketch -->
    <title>service_1_slice</title>
    <desc>Created with Sketch.</desc>
    <defs>
        <linearGradient x1="19.1781902%" y1="85.041891%" x2="94.0365495%" y2="0%" id="linearGradient-1">
            <stop stop-color="#A08EFF" offset="0%"></stop>
            <stop stop-color="#764DFF" offset="100%"></stop>
        </linearGradient>
    </defs>
    <g id="Page-1" stroke="none" stroke-width="1" fill="none" fill-rule="evenodd">
        <g id="Artboard" transform="translate(-5.000000, 0.000000)" fill-rule="nonzero">
            <g id="service_1" transform="translate(5.000000, 0.000000)">
                <circle id="Oval-5" fill="url(#linearGradient-1)" cx="39.1959799" cy="39.1959799" r="39.1959799"></circle>
                <g id="qiantaidaping" transform="translate(18.000000, 19.000000)">
                    <path d="M33.7517817,29.2966732 L29.2793158,29.2966732 C28.4690533,29.2966732 27.8144345,28.5875027 27.8144345,27.7097184 C27.8144345,26.831934 28.4690533,26.1227636 29.2793158,26.1227636 L33.7426262,26.1227636 L33.7426262,21.42141 C33.7426262,20.5436257 34.397245,19.8344552 35.2075075,19.8344552 C36.01777,19.8344552 36.6723889,20.5436257 36.6723889,21.42141 L36.6723889,26.1227636 C36.6769666,27.8733731 35.3631512,29.2966732 33.7517817,29.2966732 Z M35.2120853,13.4271253 C34.4018228,13.4271253 33.7472039,12.7179549 33.7472039,11.8401705 L33.7472039,7.06938766 L29.3525599,7.06938766 C28.5422974,7.06938766 27.8876786,6.36021724 27.8876786,5.48243287 C27.8876786,4.6046485 28.5422974,3.89547808 29.3525599,3.89547808 L33.7517817,3.89547808 C35.3631512,3.89547808 36.6769666,5.31877816 36.6769666,7.06938766 L36.6769666,11.8401705 C36.6769666,12.7179549 36.01777,13.4271253 35.2120853,13.4271253 Z M5.90530291,13.4271253 C5.09504042,13.4271253 4.44042157,12.7179549 4.44042157,11.8401705 L4.44042157,7.06938766 C4.44042157,5.31877816 5.75423702,3.89547808 7.3656065,3.89547808 L11.7648283,3.89547808 C12.5750908,3.89547808 13.2297096,4.6046485 13.2297096,5.48243287 C13.2297096,6.36021724 12.5750908,7.06938766 11.7648283,7.06938766 L7.37018425,7.06938766 L7.37018425,11.8451297 C7.37018425,12.7179549 6.7155654,13.4271253 5.90530291,13.4271253 Z M11.751095,29.2966732 L7.37018425,29.2966732 C5.75881478,29.2966732 4.44499932,27.8733731 4.44499932,26.1227636 L4.44499932,21.4114916 C4.44499932,20.5337072 5.09961817,19.8245368 5.90988067,19.8245368 C6.72014316,19.8245368 7.37476201,20.5337072 7.37476201,21.4114916 L7.37476201,26.1227636 L11.751095,26.1227636 C12.5613575,26.1227636 13.2159764,26.831934 13.2159764,27.7097184 C13.2159764,28.5875027 12.5613575,29.2966732 11.751095,29.2966732 Z M1.50608113,39.5002965 C0.695818638,39.5002965 0.0411997878,38.7911261 0.0411997878,37.9133417 C0.0411997878,37.0355574 0.695818638,36.3263869 1.50608113,36.3263869 L39.5701073,36.2916723 C40.3803698,36.2916723 41.0349886,37.0008427 41.0349886,37.8786271 C41.0349886,38.7564115 40.3803698,39.4655819 39.5701073,39.4655819 L1.50608113,39.5002965 C1.51065888,39.5002965 1.50608113,39.5002965 1.50608113,39.5002965 Z" id="Shape" fill="#FFFFFF"></path>
                    <rect id="Rectangle-10" stroke="#FFFFFF" stroke-width="3" x="1.5" y="1.5" width="38.0624551" height="30.3632448" rx="8"></rect>
                </g>
            </g>
        </g>
    </g>
</svg>