<?xml version="1.0" encoding="UTF-8"?>
<svg width="79px" height="79px" viewBox="0 0 79 79" version="1.1" xmlns="http://www.w3.org/2000/svg" xmlns:xlink="http://www.w3.org/1999/xlink">
    <!-- Generator: Sketch 52.5 (67469) - http://www.bohemiancoding.com/sketch -->
    <title>service_2_slice</title>
    <desc>Created with Sketch.</desc>
    <defs>
        <linearGradient x1="19.1781902%" y1="85.041891%" x2="94.0365495%" y2="0%" id="linearGradient-1">
            <stop stop-color="#A08EFF" offset="0%"></stop>
            <stop stop-color="#764DFF" offset="100%"></stop>
        </linearGradient>
    </defs>
    <g id="Page-1" stroke="none" stroke-width="1" fill="none" fill-rule="evenodd">
        <g id="Artboard" transform="translate(-4.000000, 0.000000)" fill-rule="nonzero">
            <g id="service_2" transform="translate(4.000000, 0.000000)">
                <circle id="Oval-5" fill="url(#linearGradient-1)" cx="39.1959799" cy="39.1959799" r="39.1959799"></circle>
                <g id="Group-10" transform="translate(19.000000, 21.000000)" fill="#FFFFFF" stroke="#FFFFFF" stroke-width="0.2">
                    <path d="M6.22868119,32.1483103 L23.8367511,32.1483103 C23.075321,31.3868802 22.4090698,30.4350927 21.933176,29.4833051 L6.22868119,29.4833051 C4.32510607,29.4833051 2.80224599,27.960445 2.80224599,26.0568699 L2.80224599,6.64040367 C2.80224599,4.73682855 4.32510607,3.21396847 6.22868119,3.21396847 L30.5944427,3.21396847 C32.4980178,3.21396847 34.0208779,4.73682855 34.020878,6.64040367 L34.020878,17.2052456 C35.0678443,17.6811394 35.9244531,18.2522119 36.6858831,19.013642 L36.6858831,6.64040367 C36.6858831,3.30914723 34.020878,0.548963304 30.5944427,0.548963304 L6.22868119,0.548963304 C2.89742475,0.548963304 0.137240826,3.30914723 0.137240826,6.64040367 L0.137240826,26.0568699 C0.137240826,29.3881264 2.89742475,32.1483103 6.22868119,32.1483103 Z M31.7365878,34.6229579 C31.260694,34.7181367 30.6896215,34.8133154 30.2137277,34.8133154 C29.6426552,34.8133154 29.0715826,34.7181367 28.5956888,34.6229579 L1.46974343,34.6229579 C0.708313384,34.6229579 0.137240826,35.1940304 0.137240826,35.9554605 C0.137240826,36.7168906 0.708313348,37.2879631 1.46974343,37.2879631 L35.3533805,37.2879631 L32.6883754,34.6229579 L31.7365878,34.6229579 Z" id="Shape"></path>
                    <path d="M40.9066204,34.6273009 L37.1280443,30.8487248 C38.4461522,29.442743 39.237017,27.5973918 39.237017,25.4884191 C39.237017,21.094726 35.7220625,17.5797715 31.3283693,17.5797715 C26.9346762,17.5797715 23.4197217,21.094726 23.4197217,25.4884191 C23.4197217,29.8821123 26.9346762,33.3970668 31.3283693,33.3970668 C32.7343511,33.3970668 34.0524591,33.0455713 35.1948193,32.4304543 L39.1491431,36.3847781 C39.4127647,36.6483997 39.6763863,36.7362736 40.0278818,36.7362736 C40.3793772,36.7362736 40.6429988,36.6483997 40.9066204,36.3847781 C41.4338635,35.9454088 41.4338635,35.154544 40.9066204,34.6273009 Z M25.8801898,25.4884191 C25.8801898,22.5007078 28.340658,20.0402396 31.3283693,20.0402396 C34.3160806,20.0402396 36.7765488,22.5007078 36.7765488,25.4884191 C36.7765488,28.4761305 34.3160807,30.9365986 31.3283693,30.9365986 C28.340658,30.9365986 25.8801898,28.4761305 25.8801898,25.4884191 Z M29.0436489,9.93474539 L21.5743706,15.7344203 L19.377524,12.9224567 C18.9381547,12.3952136 18.2351637,12.3073397 17.6200467,12.6588351 L9.79927292,18.3706362 C9.27202975,18.8100055 9.09628202,19.6008703 9.53565135,20.1281135 C9.79927295,20.4796089 10.1507684,20.6553566 10.5901377,20.6553567 C10.8537593,20.6553567 11.1173809,20.5674828 11.2931286,20.3917351 L18.1472899,15.3829249 L20.3441365,18.1948885 C20.7835058,18.7221317 21.5743706,18.8100056 22.1016137,18.3706362 L30.5375046,11.9558442 C31.0647477,11.516475 31.1526216,10.7256102 30.8011262,10.198367 C30.3617569,9.67112383 29.5708921,9.58324996 29.0436489,9.93474539 Z" id="Shape"></path>
                </g>
            </g>
        </g>
    </g>
</svg>