<?xml version="1.0" encoding="UTF-8"?>
<svg width="819px" height="496px" viewBox="0 0 819 496" version="1.1" xmlns="http://www.w3.org/2000/svg" xmlns:xlink="http://www.w3.org/1999/xlink">
    <!-- Generator: Sketch 52.5 (67469) - http://www.bohemiancoding.com/sketch -->
    <title>video_bg_slice</title>
    <desc>Created with Sketch.</desc>
    <defs>
        <linearGradient x1="77.419099%" y1="10.5805838%" x2="-30.6604272%" y2="111.550867%" id="linearGradient-1">
            <stop stop-color="#846DFF" offset="0%"></stop>
            <stop stop-color="#BE5AFF" offset="100%"></stop>
        </linearGradient>
    </defs>
    <g id="Page-1" stroke="none" stroke-width="1" fill="none" fill-rule="evenodd">
        <g id="Artboard" transform="translate(0.000000, -93.000000)" fill-rule="nonzero">
            <g id="video_bg" transform="translate(0.000000, 93.000000)">
                <path d="M303.564494,11.3319031 C221.308933,30.1446036 307.597994,176.865629 163.065317,156.810813 C18.5326399,136.755998 14.3530999,211.560596 34.921875,295.40625 C55.4906501,379.251904 145.467879,474.382697 250.085938,442.4375 C354.703996,410.492303 354.703996,479.960937 444.398438,493.554688 C534.092879,507.148438 646.5826,446.469092 664.029419,352.048485 C681.476238,257.627877 709.46728,314.440436 785.405965,236.411773 C861.34465,158.38311 806.98343,-41.061024 625.976122,27.3607595 C444.968814,95.782543 385.820055,-7.48079729 303.564494,11.3319031 Z" id="Path-79" fill="url(#linearGradient-1)" opacity="0.380743118"></path>
                <path d="M299.6568,2.24935352 C220.290231,20.3960824 303.548635,161.923168 164.092257,142.578295 C24.6358786,123.233422 -15.0568323,219.722824 4.78952317,300.600333 C24.6358786,381.477842 131.722747,445.671718 232.666394,414.857384 C333.610041,384.04305 372.284016,442.880838 436.094696,460.096152 C499.905375,477.311465 630.627372,421.982641 647.461421,330.904532 C664.295469,239.826424 691.303406,294.627813 764.574961,219.361373 C837.846516,144.094933 785.394579,-48.2888585 610.744637,17.7107867 C436.094696,83.7104319 379.023368,-15.8973753 299.6568,2.24935352 Z" id="Path-79" fill="#764DFF"></path>
            </g>
        </g>
    </g>
</svg>