<?xml version="1.0" encoding="utf-8"?>
<!-- Generator: Adobe Illustrator 17.0.0, SVG Export Plug-In . SVG Version: 6.00 Build 0)  -->
<!DOCTYPE svg PUBLIC "-//W3C//DTD SVG 1.1//EN" "http://www.w3.org/Graphics/SVG/1.1/DTD/svg11.dtd">
<svg version="1.1" id="Layer_1" xmlns="http://www.w3.org/2000/svg" xmlns:xlink="http://www.w3.org/1999/xlink" x="0px" y="0px"
	 width="21px" height="22px" viewBox="0 0 21 22" enable-background="new 0 0 21 22" xml:space="preserve">
<path fill="#FFFFFF" d="M18,9L18,9c0.469-0.81,1-1.997,1-3c0-3.038-1.962-6-5-6S8,1.619,8,6c-3.725,0-5,1.962-5,5
	c0,1.003,0.023,1.94,0.492,2.75H3.3C1.341,14.628,0,16.507,0,18.512v2.113C0,21.107,0.762,22,1.332,22h13.965
	C15.867,22,17,21.482,17,21v-2c0-0.699-1.204-2.306-2-3h5c0.57,0,1-1.08,1-1.563v-1.425C21,11.007,19.959,9.877,18,9z M14,1
	c2.654,0,4,2.346,4,5s-2.346,4-5,4c-0.015-2.514-2.954-3.951-4-4C9,2.409,11.346,1,14,1z M8,7c2.209,0,4,1.791,4,4s-1.791,4-4,4
	c-1.977,0-3.609-1.438-3.932-3.323C4.026,11.458,4,11.232,4,11C4,8.791,5.791,7,8,7z M16,21H1.682L1,20
	c0-0.933-0.396-3.857,3.125-5.563L6,16h8c0.556,0.612,2,2.067,2,3V21z M20,15h-9c0.469-0.81,2.129-1.207,2-4c3.223,0.016,4-1,4-1
	c2.148,0.13,3,2.254,3,3V15z"/>
</svg>
