<?xml version="1.0" encoding="utf-8"?>
<!-- Generator: Adobe Illustrator 17.0.0, SVG Export Plug-In . SVG Version: 6.00 Build 0)  -->
<!DOCTYPE svg PUBLIC "-//W3C//DTD SVG 1.1//EN" "http://www.w3.org/Graphics/SVG/1.1/DTD/svg11.dtd">
<svg version="1.1" id="Layer_1" xmlns="http://www.w3.org/2000/svg" xmlns:xlink="http://www.w3.org/1999/xlink" x="0px" y="0px"
	 width="20.031px" height="18px" viewBox="0 0 20.031 18" enable-background="new 0 0 20.031 18" xml:space="preserve">
<path fill="#FFFFFF" d="M18.92,18H8.043H4.037H1.142c-0.614,0-1.111-0.504-1.111-1.125c0,0-0.028-9.856,0-10.875l9.156-5.794
	C9.375,0.072,9.599,0,9.828,0h0.406c0.229,0,0.453,0.072,0.641,0.206c0,0,6.968,4.461,9.156,5.794v10.875
	C20.031,17.496,19.533,18,18.92,18z M19.031,7l-8.998-5.987c0,0-7.498,5.107-8.999,6.112L1.031,16c0,0.329,0.697,1,1,1h2.006V9.562
	C4.037,9.252,4.261,9,4.538,9h3.005c0.276,0,0.5,0.252,0.5,0.562V17h9.988c0.307,0,1-0.689,1-1C19.031,16,19.018,8.565,19.031,7z
	 M15.524,11h-3.005c-0.276,0-0.501-0.224-0.501-0.5v-1c0-0.276,0.225-0.5,0.501-0.5h3.005c0.277,0,0.501,0.224,0.501,0.5v1
	C16.025,10.776,15.801,11,15.524,11z"/>
</svg>
