<?xml version="1.0" encoding="utf-8"?>
<!-- Generator: Adobe Illustrator 17.0.0, SVG Export Plug-In . SVG Version: 6.00 Build 0)  -->
<!DOCTYPE svg PUBLIC "-//W3C//DTD SVG 1.1//EN" "http://www.w3.org/Graphics/SVG/1.1/DTD/svg11.dtd">
<svg version="1.1" id="Layer_1" xmlns="http://www.w3.org/2000/svg" xmlns:xlink="http://www.w3.org/1999/xlink" x="0px" y="0px"
	 width="21px" height="22px" viewBox="-0.282 -0.219 21 22" enable-background="new -0.282 -0.219 21 22" xml:space="preserve">
<path fill="#FFFFFF" d="M18.817,9.367c-1.824,1.825-4.605,2.083-6.72,0.807c-0.07,0.221-0.176,0.432-0.351,0.607l-9.192,9.193
	c-0.586,0.585-1.536,0.585-2.122,0c-0.585-0.586-0.585-1.536,0-2.122L9.625,8.66c0.175-0.175,0.386-0.281,0.607-0.351
	c-1.276-2.115-1.018-4.896,0.807-6.72c2.148-2.148,5.63-2.148,7.778,0S20.965,7.219,18.817,9.367z M18.11,2.296
	c-1.757-1.757-4.606-1.757-6.364,0c-1.757,1.757-1.757,4.607,0,6.364c1.758,1.757,4.607,1.757,6.364,0
	C19.868,6.903,19.868,4.053,18.11,2.296z M3.261,19.266c0.195-0.195,0.512-0.195,0.707,0l0.354,0.354l2.474-2.475
	c0.196-0.195,0.512-0.195,0.708,0c0.195,0.195,0.195,0.512,0,0.707l-2.829,2.829l0,0l0,0l-0.707,0.707
	c-0.195,0.195-0.512,0.195-0.707,0c-0.195-0.195-0.195-0.512,0-0.707l0.353-0.354l-0.353-0.353
	C3.066,19.778,3.066,19.462,3.261,19.266z"/>
</svg>
