<?xml version="1.0" encoding="utf-8"?>
<!-- Generator: Adobe Illustrator 17.0.0, SVG Export Plug-In . SVG Version: 6.00 Build 0)  -->
<!DOCTYPE svg PUBLIC "-//W3C//DTD SVG 1.1//EN" "http://www.w3.org/Graphics/SVG/1.1/DTD/svg11.dtd">
<svg version="1.1" id="Layer_1" xmlns="http://www.w3.org/2000/svg" xmlns:xlink="http://www.w3.org/1999/xlink" x="0px" y="0px"
	 width="57px" height="17px" viewBox="0 0 57 17" enable-background="new 0 0 57 17" xml:space="preserve">
<g>
	<path fill="#56B5FF" d="M22,17V0h2v17H22z M6.865,17H0V0h7.054c2.68,0,4.698,0.778,6.054,2.333C14.369,3.778,15,5.833,15,8.5
		c0,2.619-0.678,4.675-2.034,6.167C11.547,16.222,9.513,17,6.865,17z M2,17h2v-2H2V17z M11.555,3.659C10.529,2.553,8.928,2,6.753,2
		H2v13h4.543c2.16,0,3.792-0.56,4.895-1.682C12.479,12.212,13,10.606,13,8.5C13,6.333,12.518,4.72,11.555,3.659z"/>
	<path fill="#56B5FF" d="M48.498,8.579l-1.433,1.639L47,10.143L41.037,17H38.18l7.391-8.5L38.18,0h2.857L47,6.857L52.963,0h2.857
		l-7.391,8.5L48.498,8.579z M49.798,10.075L55.82,17h-2.857l-4.593-5.282L49.798,10.075z"/>
	<rect x="29" y="8" fill="#56B5FF" width="7" height="2"/>
</g>
</svg>
