<?xml version="1.0" encoding="utf-8"?>
<!-- Generator: Adobe Illustrator 17.0.0, SVG Export Plug-In . SVG Version: 6.00 Build 0)  -->
<!DOCTYPE svg PUBLIC "-//W3C//DTD SVG 1.1//EN" "http://www.w3.org/Graphics/SVG/1.1/DTD/svg11.dtd">
<svg version="1.1" id="Layer_1" xmlns="http://www.w3.org/2000/svg" xmlns:xlink="http://www.w3.org/1999/xlink" x="0px" y="0px"
	 width="23px" height="20px" viewBox="0 0 23 20" enable-background="new 0 0 23 20" xml:space="preserve">
<path fill="#FFFFFF" d="M16,20v-7h3v-3h-7v3h3v7H8v-7h3v-3H4v3h3v7H0v-7h3V9h1h7V7H7V0h9v7h-4v2h7h1v1v3h3v7H16z M9,14v5h5v-5H9z
	 M3,14H1v5h5v-5H4H3z M15,6V1H8v5h3h1H15z M22,14h-2h-1h-2v5h5V14z"/>
</svg>
