<?xml version="1.0" encoding="utf-8"?>
<!-- Generator: Adobe Illustrator 17.0.0, SVG Export Plug-In . SVG Version: 6.00 Build 0)  -->
<!DOCTYPE svg PUBLIC "-//W3C//DTD SVG 1.1//EN" "http://www.w3.org/Graphics/SVG/1.1/DTD/svg11.dtd">
<svg version="1.1" id="Layer_1" xmlns="http://www.w3.org/2000/svg" xmlns:xlink="http://www.w3.org/1999/xlink" x="0px" y="0px"
	 width="27px" height="22px" viewBox="0 0 27 22" enable-background="new 0 0 27 22" xml:space="preserve">
<path fill="#FFFFFF" d="M24,14c-0.772,0-1.468-0.3-2-0.779V19v1h-1h-3.76h-1.296C16.594,19.365,17,18.481,17,17.5
	c0-1.933-1.567-3.5-3.5-3.5S10,15.567,10,17.5c0,0.981,0.406,1.865,1.056,2.5H9.76H6H5v-1v-5.779C4.468,13.7,3.772,14,3,14
	c-1.657,0-3-1.343-3-3s1.343-3,3-3c0.772,0,1.468,0.3,2,0.779V3V2h1h3.76h1.296C10.406,2.635,10,3.519,10,4.5
	C10,6.433,11.567,8,13.5,8S17,6.433,17,4.5c0-0.981-0.406-1.865-1.056-2.5h1.296H21h1v1v5.779C22.532,8.3,23.228,8,24,8
	c1.657,0,3,1.343,3,3S25.657,14,24,14z M3,9c-1.105,0-2,0.895-2,2s0.895,2,2,2c1.104,0,2-0.895,2-2S4.104,9,3,9z M21,3h-3.276
	C17.892,3.471,18,3.971,18,4.5C18,6.985,15.985,9,13.5,9S9,6.985,9,4.5C9,3.971,9.108,3.471,9.275,3H6v16h3.275
	C9.108,18.529,9,18.029,9,17.5c0-2.485,2.015-4.5,4.5-4.5s4.5,2.015,4.5,4.5c0,0.529-0.108,1.029-0.276,1.5H21V3z M24,9
	c-1.105,0-2,0.895-2,2s0.895,2,2,2s2-0.895,2-2S25.105,9,24,9z"/>
</svg>
