<?xml version="1.0" encoding="UTF-8"?>
<svg width="92px" height="60px" viewBox="0 0 92 60" version="1.1" xmlns="http://www.w3.org/2000/svg" xmlns:xlink="http://www.w3.org/1999/xlink">
    <!-- Generator: Sketch 49.3 (51167) - http://www.bohemiancoding.com/sketch -->
    <title>Fill 1</title>
    <desc>Created with Sketch.</desc>
    <defs></defs>
    <g id="营销云-UI" stroke="none" stroke-width="1" fill="none" fill-rule="evenodd">
        <g id="对比-copy-10" transform="translate(-674.000000, -682.000000)" fill="#D0D0D0">
            <g id="Group" transform="translate(644.000000, 682.000000)">
                <path d="M109.734235,14.0746743 C110.750494,14.0746743 111.574326,13.2526641 111.574326,12.2386515 C111.574326,11.224639 110.750494,10.4026288 109.734235,10.4026288 C108.716473,10.4026288 107.892642,11.224639 107.892642,12.2386515 C107.892642,13.2526641 108.716473,14.0746743 109.734235,14.0746743 Z M109.734235,15.910697 C107.700214,15.910697 106.054055,14.2666767 106.054055,12.2386515 C106.054055,10.2106264 107.700214,8.56660607 109.732732,8.56660607 L109.734235,8.56660607 C111.766753,8.56660607 113.412912,10.2106264 113.412912,12.2386515 C113.412912,14.2666767 111.766753,15.910697 109.734235,15.910697 Z M33.6816847,21.4187652 C34.6979437,21.4187652 35.5217749,20.596755 35.5217749,19.5827425 C35.5217749,18.5687299 34.6979437,17.7467197 33.6816847,17.7467197 C32.6654258,17.7467197 31.8415945,18.5687299 31.8415945,19.5827425 C31.8415945,20.596755 32.6654258,21.4187652 33.6816847,21.4187652 Z M33.6816847,23.2547879 C31.6491668,23.2547879 30.000001,21.6122676 30.000001,19.5842425 C29.9984977,17.5562174 31.6461601,15.912197 33.6771747,15.910697 L33.6816847,15.910697 C35.7142026,15.910697 37.3603617,17.5547174 37.3603617,19.5827425 C37.3603617,21.6092676 35.7142026,23.2547879 33.6816847,23.2547879 Z M56.9879903,30.5973789 C56.9879903,29.9223705 57.5352067,29.3733637 58.2117104,29.3733637 L66.803308,29.3733637 C67.4798117,29.3733637 68.0270281,29.9178704 68.0270281,30.5973789 C68.0270281,31.2723872 67.4813151,31.822894 66.803308,31.822894 L58.2117104,31.822894 C57.53671,31.8243941 56.9894937,31.2783873 56.9879903,30.604879 L56.9879903,30.5973789 Z M56.9879903,24.4788031 C56.9879903,23.8022947 57.5337034,23.2547879 58.2056971,23.2547879 L77.8498624,23.2547879 C78.5203528,23.2547879 79.0675692,23.7977947 79.0675692,24.4788031 C79.0675692,25.1538115 78.5203528,25.7013182 77.8498624,25.7013182 L58.2056971,25.7013182 C57.5322,25.7013182 56.986487,25.1568115 56.9879903,24.4833032 L56.9879903,24.4788031 Z M56.9879903,18.3572273 C56.9879903,17.6822189 57.53671,17.1347122 58.2132138,17.1347122 L71.7072084,17.1347122 C72.3852155,17.1347122 72.9339352,17.6822189 72.9339352,18.3572273 C72.9339352,19.0337357 72.3852155,19.5827425 71.7072084,19.5827425 L58.2132138,19.5827425 C57.5382134,19.5842425 56.9894937,19.0397358 56.9879903,18.3662274 L56.9879903,18.3572273 Z M69.9122185,47.165084 C72.3070418,44.7740544 72.3070418,40.8995064 69.9122185,38.5099768 C67.5158919,36.1189472 63.6312571,36.1189472 61.2364338,38.5099768 C58.8416106,40.8995064 58.8416106,44.7740544 61.2364338,47.165084 C63.6312571,49.5561136 67.5158919,49.5561136 69.9122185,47.165084 Z M31.2282312,55.076182 C31.2282312,54.3996736 31.7829642,53.8521668 32.4504479,53.8521668 L39.8183253,53.8521668 C40.4933257,53.8521668 41.0420454,54.3951735 41.0420454,55.076182 C41.0420454,55.7526903 40.485809,56.3001971 39.8183253,56.3001971 L32.4504479,56.3001971 C31.7769509,56.3016971 31.2282312,55.7556904 31.2282312,55.082182 L31.2282312,55.076182 Z M45.6407676,2.75253408 L47.468831,2.75253408 C47.9844772,2.75253408 48.4009028,3.16053913 48.4009028,3.67054545 C48.4009028,4.17755173 47.9844772,4.58855682 47.468831,4.58855682 L45.6407676,4.58855682 L45.6407676,6.4125794 C45.6407676,6.92708577 45.233362,7.34259092 44.7207225,7.34259092 C44.2095863,7.33959088 43.7976707,6.92258572 43.8006774,6.4125794 L43.8006774,4.58855682 L41.9741173,4.58855682 C41.4629811,4.59305687 41.0465555,4.18505182 41.0420454,3.6750455 L41.0420454,3.67054545 C41.0420454,3.16503919 41.4584711,2.75253408 41.9741173,2.75253408 L43.8006774,2.75253408 L43.8006774,0.930011515 C43.8006774,0.415505145 44.2095863,0 44.7207225,0 C45.2288519,0 45.6407676,0.415505145 45.6407676,0.930011515 L45.6407676,2.75253408 Z M88.8813834,47.733591 L92.5720872,47.733591 C93.9205847,47.7260909 95.013514,46.6325774 95.013514,45.2840607 L95.013514,9.79062123 C95.013514,8.43460444 93.9190813,7.34259092 92.5720872,7.34259092 L63.1080942,7.34259092 C61.7580934,7.35009101 60.6681707,8.44360455 60.6681707,9.79062123 L60.6681707,11.0146364 L83.9684629,11.0146364 C86.6759812,11.0086363 88.8738667,13.1926634 88.8813834,15.8926968 L88.8813834,15.9046969 L88.8813834,47.733591 Z M80.0823248,53.8521668 L83.9834963,53.8521668 C85.3334971,53.8521668 86.4264265,52.7631533 86.4264265,51.3981364 L86.4264265,15.8461962 C86.4264265,14.5246798 85.368074,13.4626667 84.0601668,13.4626667 L54.4488463,13.4626667 C53.1409391,13.4626667 52.0810832,14.5291799 52.0810832,15.8461962 L52.0810832,51.3981364 C52.0810832,52.7541532 53.184536,53.8521668 54.52251,53.8521668 L73.144403,53.8521668 L72.5129996,53.222159 C71.8906161,52.6041513 71.6485781,51.7011402 71.8755827,50.8566297 L70.7180096,49.7001154 C66.9130519,52.5261504 61.5325921,51.7386406 58.6987931,47.9435936 C56.1581457,44.5370515 56.4994043,39.7879927 59.5015776,36.7774554 C62.8495194,33.4264139 68.2856028,33.4174138 71.6455714,36.7579551 C74.6778115,39.7714925 75.0220768,44.5535517 72.4528659,47.969094 L73.6119423,49.1256083 C74.4583237,48.8961054 75.3633353,49.1391084 75.9827121,49.7616162 L80.0823248,53.8521668 Z M75.5978566,56.3001971 L44.7177158,56.3001971 C44.0427154,56.3016971 43.495499,55.7556904 43.4939957,55.082182 L43.4939957,55.076182 C43.4939957,54.3996736 44.0502321,53.8521668 44.7177158,53.8521668 L50.2800799,53.8521668 C49.8516275,53.1096576 49.6261263,52.2666472 49.6276296,51.4101366 L49.6276296,15.9046969 C49.629133,13.2016635 51.8255151,11.0131364 54.5330334,11.0146364 L54.5390468,11.0146364 L58.2132138,11.0146364 L58.2132138,9.78462115 C58.2147171,7.0830877 60.4110993,4.89306059 63.1201209,4.8945606 L63.1261343,4.8945606 L92.5555504,4.8945606 C95.2615654,4.88856053 97.4609542,7.07408759 97.4669676,9.77412102 L97.4669676,9.78462115 L97.4669676,45.2915608 C97.4669676,46.1810718 97.2294396,47.0135821 96.813014,47.733591 L103.599098,47.733591 C104.277105,47.733591 104.825825,48.2750977 104.825825,48.9561062 C104.825825,49.6326146 104.281615,50.1816214 103.600602,50.1816214 L88.8813834,50.1816214 L88.8813834,51.4101366 C88.8813834,52.3011476 88.6423521,53.1351579 88.2259265,53.8521668 L88.8843901,53.8521668 C89.5593905,53.8521668 90.1066069,54.3951735 90.1066069,55.076182 C90.1066069,55.7526903 89.5518738,56.3001971 88.8843901,56.3001971 L82.4305444,56.3001971 C82.9912909,57.2377087 82.8695202,58.4662239 82.054709,59.280734 C81.1000871,60.2362458 79.5516452,60.2407459 78.5925132,59.2882341 C78.5910098,59.2852341 78.5880032,59.2837341 78.5849965,59.280734 L75.5978566,56.3001971 Z M120.161413,36.1054471 L120.161413,34.8694318 C120.15991,34.5364276 119.887805,34.2679243 119.554063,34.2694243 L119.546546,34.2694243 C119.212805,34.2694243 118.9407,34.5364276 118.933183,34.8694318 L118.933183,36.1054471 L117.69443,36.1054471 C117.360688,36.1069471 117.093093,36.3784504 117.094596,36.7099545 L117.094596,36.7174546 C117.094596,37.0459587 117.363694,37.3279622 117.69443,37.3279622 L118.933183,37.3279622 L118.933183,38.5654775 C118.933183,38.9014817 119.208295,39.165485 119.546546,39.165485 C119.880288,39.165485 120.153896,38.8984816 120.161413,38.5654775 L120.161413,37.3279622 L121.398663,37.3279622 C121.735412,37.3279622 122,37.0549588 122,36.7174546 C122,36.3844505 121.732405,36.1114471 121.398663,36.1054471 L120.161413,36.1054471 Z M39.2019553,41.0015077 L40.4407088,41.0015077 C40.7744506,41.0090078 41.0420454,41.2790111 41.0420454,41.6135153 C41.0420454,41.9495194 40.7774573,42.2255228 40.4407088,42.2255228 L39.2019553,42.2255228 L39.2019553,43.4600381 C39.1944386,43.7945423 38.9208304,44.0615456 38.5870885,44.0615456 C38.25485,44.0675456 37.9797385,43.8020424 37.9752285,43.4690382 L37.9752285,43.4600381 L37.9752285,42.2255228 L36.7349716,42.2255228 C36.4012298,42.2180227 36.133635,41.9465194 36.133635,41.6135153 C36.133635,41.2745111 36.3982231,41.0015077 36.7349716,41.0015077 L37.9752285,41.0015077 L37.9752285,39.7639924 C37.9812418,39.4324883 38.2533467,39.165485 38.5870885,39.165485 C38.9268437,39.165485 39.2019553,39.4279882 39.2019553,39.7639924 L39.2019553,41.0015077 Z" id="Fill-1"></path>
            </g>
        </g>
    </g>
</svg>