<?xml version="1.0" encoding="utf-8"?>
<!-- Generator: Adobe Illustrator 22.0.1, SVG Export Plug-In . SVG Version: 6.00 Build 0)  -->
<svg version="1.1" id="Layer_1" xmlns="http://www.w3.org/2000/svg" xmlns:xlink="http://www.w3.org/1999/xlink" x="0px" y="0px"
	 viewBox="0 0 24 21" style="enable-background:new 0 0 24 21;" xml:space="preserve">
<style type="text/css">
	.st0{fill:#838CC7;}
</style>
<title>area</title>
<desc>Created with Sketch.</desc>
<g id="area" transform="translate(1632.000000, 788.000000)">
	<g id="Path-4">
		<path class="st0" d="M-1632-767.2h24v-14c-2.6-1.7-5.2-0.7-7.8,3c-3.9,5.5-5.4,1-8.8,0C-1626.9-778.9-1629.4-775.2-1632-767.2z"/>
	</g>
	<g id="Path-4-Copy">
		<path class="st0" d="M-1608-767h-24l0-1c0.4-9.6,2.4-14.8,5.8-15.4c1.6-0.3,2.8-0.1,4.2,0.6l0.2,0.1c0.2,0.1,0.6,0.3,0.7,0.4
			c0.3,0.2,0.6,0.2,0.8,0.3c0.6,0.1,1.4-0.2,2.8-2.3c1-1.5,2.1-2.4,3.5-2.7c1.6-0.3,3.3,0.2,5.4,1.5l0.4,0.3V-767z M-1629.9-769
			h19.9v-15.2c-1.4-0.8-2.5-1.1-3.4-1c-0.8,0.2-1.5,0.8-2.2,1.8c-1.1,1.7-2.6,3.5-4.7,3.2c-0.5-0.1-0.9-0.2-1.4-0.4
			c-0.2-0.1-0.6-0.3-0.8-0.4l-0.2-0.1c-1.1-0.5-1.9-0.6-3-0.4C-1626.8-781.3-1629.3-779.7-1629.9-769z"/>
	</g>
</g>
</svg>
