<?xml version="1.0" encoding="UTF-8"?>
<svg width="26px" height="24px" viewBox="0 0 26 24" version="1.1" xmlns="http://www.w3.org/2000/svg" xmlns:xlink="http://www.w3.org/1999/xlink">
    <!-- Generator: Sketch 48.2 (47327) - http://www.bohemiancoding.com/sketch -->
    <title>bar</title>
    <desc>Created with Sketch.</desc>
    <defs></defs>
    <g id="模板编辑" stroke="none" stroke-width="1" fill="none" fill-rule="evenodd" transform="translate(-408.000000, -163.000000)">
        <path d="M430.906918,184.784906 L430.906918,176.493082 L425.674214,176.493082 L425.674214,184.865409 L423.581132,184.865409 L423.581132,164.015094 L418.348428,164.015094 L418.348428,184.865409 L416.255346,184.865409 L416.255346,172.306918 L411.103145,172.306918 L411.103145,184.784906 L409.010063,184.784906 L409.010063,185.831447 L433,185.831447 L433,184.784906 L430.906918,184.784906 Z M426.720755,177.539623 L429.860377,177.539623 L429.860377,184.865409 L426.720755,184.865409 L426.720755,177.539623 Z M419.475472,164.981132 L422.615094,164.981132 L422.615094,184.784906 L419.475472,184.784906 L419.475472,164.981132 Z M412.149686,173.353459 L415.289308,173.353459 L415.289308,184.784906 L412.149686,184.784906 L412.149686,173.353459 Z" id="bar" stroke="#838CC7" stroke-width="0.5" fill="#838CC7" fill-rule="nonzero"></path>
    </g>
</svg>