<?xml version="1.0" encoding="UTF-8"?>
<svg width="24px" height="24px" viewBox="0 0 24 24" version="1.1" xmlns="http://www.w3.org/2000/svg" xmlns:xlink="http://www.w3.org/1999/xlink">
    <!-- Generator: Sketch 48.1 (47250) - http://www.bohemiancoding.com/sketch -->
    <title>bar</title>
    <desc>Created with Sketch.</desc>
    <defs></defs>
    <g id="视觉规范" stroke="none" stroke-width="1" fill="none" fill-rule="evenodd" transform="translate(-1945.000000, -713.000000)">
        <path d="M1963,726 L1965,726 L1967,726 L1967,735 L1969,735 L1969,737 L1945,737 L1945,735 L1947,735 L1947,722 L1949,722 L1951,722 L1953,722 L1953,735 L1954,735 L1954,713 L1956,713 L1958,713 L1960,713 L1960,735 L1961,735 L1961,726 L1963,726 Z M1963,728 L1963,735 L1965,735 L1965,728 L1963,728 Z M1958,715 L1956,715 L1956,735 L1958,735 L1958,715 Z M1949,724 L1949,735 L1951,735 L1951,724 L1949,724 Z" id="bar" fill="#838CC7"></path>
    </g>
</svg>