<?xml version="1.0" encoding="UTF-8"?>
<svg width="24px" height="24px" viewBox="0 0 24 24" version="1.1" xmlns="http://www.w3.org/2000/svg" xmlns:xlink="http://www.w3.org/1999/xlink">
    <!-- Generator: Sketch 48.2 (47327) - http://www.bohemiancoding.com/sketch -->
    <title>calendar</title>
    <desc>Created with Sketch.</desc>
    <defs></defs>
    <g id="模板编辑" stroke="none" stroke-width="1" fill="none" fill-rule="evenodd" transform="translate(-359.000000, -313.000000)">
        <path d="M377,330 C376.447,330 376,330.447 376,331 C376,331.553 376.447,332 377,332 C377.553,332 378,331.553 378,331 C378,330.447 377.553,330 377,330 L377,330 Z M364,321 C363.447,321 363,321.447 363,322 C363,322.553 363.447,323 364,323 L378,323 C378.553,323 379,322.553 379,322 C379,321.447 378.553,321 378,321 L364,321 Z M373,326 C372.447,326 372,326.447 372,327 C372,327.553 372.447,328 373,328 C373.553,328 374,327.553 374,327 C374,326.447 373.553,326 373,326 L373,326 Z M381,335 L361,335 L361,317 L364,317 L364,318 C364,318.553 364.447,319 365,319 C365.553,319 366,318.553 366,318 L366,317 L370,317 L370,318 C370,318.553 370.447,319 371,319 C371.553,319 372,318.553 372,318 L372,317 L376,317 L376,318 C376,318.553 376.447,319 377,319 C377.553,319 378,318.553 378,318 L378,317 L381,317 L381,335 Z M382,315 L378,315 L378,314 C378,313.447 377.553,313 377,313 C376.447,313 376,313.447 376,314 L376,315 L372,315 L372,314 C372,313.447 371.553,313 371,313 C370.447,313 370,313.447 370,314 L370,315 L366,315 L366,314 C366,313.447 365.553,313 365,313 C364.447,313 364,313.447 364,314 L364,315 L360,315 C359.447,315 359,315.447 359,316 L359,336 C359,336.553 359.447,337 360,337 L382,337 C382.553,337 383,336.553 383,336 L383,316 C383,315.447 382.553,315 382,315 L382,315 Z M377,326 C376.447,326 376,326.447 376,327 C376,327.553 376.447,328 377,328 C377.553,328 378,327.553 378,327 C378,326.447 377.553,326 377,326 L377,326 Z M365,326 C364.447,326 364,326.447 364,327 C364,327.553 364.447,328 365,328 C365.553,328 366,327.553 366,327 C366,326.447 365.553,326 365,326 L365,326 Z M365,330 C364.447,330 364,330.447 364,331 C364,331.553 364.447,332 365,332 C365.553,332 366,331.553 366,331 C366,330.447 365.553,330 365,330 L365,330 Z M373,330 C372.447,330 372,330.447 372,331 C372,331.553 372.447,332 373,332 C373.553,332 374,331.553 374,331 C374,330.447 373.553,330 373,330 L373,330 Z M369,330 C368.447,330 368,330.447 368,331 C368,331.553 368.447,332 369,332 C369.553,332 370,331.553 370,331 C370,330.447 369.553,330 369,330 L369,330 Z M369,326 C368.447,326 368,326.447 368,327 C368,327.553 368.447,328 369,328 C369.553,328 370,327.553 370,327 C370,326.447 369.553,326 369,326 L369,326 Z" id="calendar" fill="#838CC7"></path>
    </g>
</svg>