<?xml version="1.0" encoding="UTF-8"?>
<svg width="24px" height="20px" viewBox="0 0 24 20" version="1.1" xmlns="http://www.w3.org/2000/svg" xmlns:xlink="http://www.w3.org/1999/xlink">
    <!-- Generator: Sketch 48.1 (47250) - http://www.bohemiancoding.com/sketch -->
    <title>compareHbar</title>
    <desc>Created with Sketch.</desc>
    <defs></defs>
    <g id="视觉规范" stroke="none" stroke-width="1" fill="none" fill-rule="evenodd" transform="translate(-2257.000000, -715.000000)">
        <path d="M2261,724 L2259,724 L2259,715 L2261,715 L2263,715 L2265,715 L2265,724 L2263,724 L2261,724 Z M2261,722 L2263,722 L2263,717 L2261,717 L2261,722 Z M2268,724 L2266,724 L2266,717 L2268,717 L2270,717 L2272,717 L2272,724 L2270,724 L2268,724 Z M2268,722 L2270,722 L2270,719 L2268,719 L2268,722 Z M2275,724 L2273,724 L2273,713 L2275,713 L2277,713 L2279,713 L2279,724 L2277,724 L2275,724 Z M2275,722 L2277,722 L2277,715 L2275,715 L2275,722 Z M2261,733 L2259,733 L2259,726 L2261,726 L2263,726 L2265,726 L2265,733 L2263,733 L2261,733 Z M2261,731 L2263,731 L2263,728 L2261,728 L2261,731 Z M2268,737 L2266,737 L2266,726 L2268,726 L2270,726 L2272,726 L2272,737 L2270,737 L2268,737 Z M2268,735 L2270,735 L2270,728 L2268,728 L2268,735 Z M2275,735 L2273,735 L2273,726 L2275,726 L2277,726 L2279,726 L2279,735 L2277,735 L2275,735 Z M2275,733 L2277,733 L2277,728 L2275,728 L2275,733 Z" id="compareHbar" fill="#838CC7" transform="translate(2269.000000, 725.000000) rotate(-270.000000) translate(-2269.000000, -725.000000) "></path>
    </g>
</svg>