<?xml version="1.0" encoding="utf-8"?>
<!-- Generator: Adobe Illustrator 22.0.1, SVG Export Plug-In . SVG Version: 6.00 Build 0)  -->
<svg version="1.1" id="Layer_1" xmlns="http://www.w3.org/2000/svg" xmlns:xlink="http://www.w3.org/1999/xlink" x="0px" y="0px"
	 viewBox="0 0 24 24" style="enable-background:new 0 0 24 24;" xml:space="preserve">
<style type="text/css">
	.st0{fill:#838CC7;}
</style>
<title>dashboard</title>
<desc>Created with Sketch.</desc>
<path id="dashboard" class="st0" d="M9.3,10.7L6.7,8.1c-0.4-0.4-0.4-1,0-1.4c0.4-0.4,1-0.4,1.4,0l2.6,2.6C11.1,9.1,11.5,9,12,9
	c1.7,0,3,1.3,3,3s-1.3,3-3,3s-3-1.3-3-3C9,11.5,9.1,11.1,9.3,10.7z M20.5,3.5c1.1,1.1,2,2.4,2.6,3.9C23.7,8.8,24,10.4,24,12
	s-0.3,3.2-0.9,4.6c-0.6,1.4-1.5,2.8-2.6,3.9c0,0,0,0-0.1,0.1C18.3,22.7,15.3,24,12,24s-6.3-1.3-8.5-3.5c0,0,0,0-0.1-0.1
	c-1.1-1.1-2-2.4-2.6-3.9C0.3,15.2,0,13.6,0,12s0.3-3.2,0.9-4.6c0.6-1.4,1.5-2.7,2.6-3.8c0,0,0,0,0.1-0.1c1.1-1.1,2.4-2,3.9-2.6
	C8.8,0.3,10.4,0,12,0s3.2,0.3,4.6,0.9C18.1,1.5,19.4,2.4,20.5,3.5C20.5,3.5,20.5,3.5,20.5,3.5z M19.1,5C19.1,4.9,19.1,4.9,19.1,5
	c-1-1-2-1.7-3.2-2.2C14.6,2.3,13.3,2,12,2S9.4,2.3,8.2,2.8C7,3.3,5.9,4,5,4.9c0,0,0,0,0,0C4,5.9,3.3,7,2.8,8.2C2.3,9.4,2,10.7,2,12
	s0.3,2.6,0.8,3.8C3.3,17,4,18.1,4.9,19c0,0,0,0,0,0c1.8,1.8,4.3,2.9,7,2.9s5.2-1.1,7-2.9c0,0,0,0,0,0c0.9-0.9,1.6-2,2.1-3.2
	c0.5-1.2,0.8-2.5,0.8-3.8s-0.3-2.6-0.8-3.8C20.7,7,20,5.9,19.1,5z M9,17h6c0.6,0,1,0.4,1,1s-0.4,1-1,1H9c-0.6,0-1-0.4-1-1
	S8.4,17,9,17z M12,13c0.6,0,1-0.4,1-1s-0.4-1-1-1s-1,0.4-1,1S11.4,13,12,13z"/>
</svg>
