<?xml version="1.0" encoding="UTF-8"?>
<svg width="24px" height="22px" viewBox="0 0 24 22" version="1.1" xmlns="http://www.w3.org/2000/svg" xmlns:xlink="http://www.w3.org/1999/xlink">
    <!-- Generator: Sketch 48.2 (47327) - http://www.bohemiancoding.com/sketch -->
    <title>funnel</title>
    <desc>Created with Sketch.</desc>
    <defs></defs>
    <g id="模板编辑" stroke="none" stroke-width="1" fill="none" fill-rule="evenodd" transform="translate(-359.000000, -264.000000)">
        <path d="M382.85855,264.491501 C382.679436,264.184988 382.350947,264 381.99563,264 L360.00437,264 C359.649053,264 359.320564,264.184988 359.141423,264.491501 C358.962282,264.798014 358.958873,265.175058 359.133136,265.484508 L370.128767,284.809441 C370.305852,285.124105 370.638929,285.318746 371,285.318568 C371.361168,285.318482 371.694213,285.123615 371.871233,284.808804 L382.866864,265.484619 C383.040977,265.175677 383.037811,264.797485 382.85855,264.491501 Z M374.547843,276.072637 C374.440591,276.033284 374.327908,275.972286 374.207048,275.972286 L367.505173,275.972286 C367.475824,275.972286 367.451104,276.018042 367.422448,276.020536 L365.133192,272.036952 L376.866808,272.036952 L374.547843,276.072637 Z M371,282.315326 L368.552804,278.023095 L373.447224,278.023095 L371,282.315326 Z M378.006614,269.986143 L364.065275,269.986143 C364.042383,269.986143 364.023289,270.029155 364.000785,270.030679 L361.713663,266.050808 L380.286337,266.050808 L378.006614,269.986143 Z" id="funnel" fill="#838CC7" fill-rule="nonzero"></path>
    </g>
</svg>