<?xml version="1.0" encoding="UTF-8"?>
<svg width="24px" height="20px" viewBox="0 0 24 20" version="1.1" xmlns="http://www.w3.org/2000/svg" xmlns:xlink="http://www.w3.org/1999/xlink">
    <!-- Generator: Sketch 48.1 (47250) - http://www.bohemiancoding.com/sketch -->
    <title>hbar</title>
    <desc>Created with Sketch.</desc>
    <defs></defs>
    <g id="视觉规范" stroke="none" stroke-width="1" fill="none" fill-rule="evenodd" transform="translate(-2101.000000, -715.000000)">
        <path d="M2119,737 L2117,737 L2117,726 L2119,726 L2121,726 L2123,726 L2123,737 L2121,737 L2119,737 Z M2119,735 L2121,735 L2121,728 L2119,728 L2119,735 Z M2112,737 L2110,737 L2110,713 L2112,713 L2114,713 L2116,713 L2116,737 L2114,737 L2112,737 Z M2112,735 L2114,735 L2114,715 L2112,715 L2112,735 Z M2105,737 L2103,737 L2103,722 L2105,722 L2107,722 L2109,722 L2109,737 L2107,737 L2105,737 Z M2105,735 L2107,735 L2107,724 L2105,724 L2105,735 Z" id="hbar" fill="#838CC7" transform="translate(2113.000000, 725.000000) rotate(-270.000000) translate(-2113.000000, -725.000000) "></path>
    </g>
</svg>