<?xml version="1.0" encoding="utf-8"?>
<!-- Generator: Adobe Illustrator 22.0.1, SVG Export Plug-In . SVG Version: 6.00 Build 0)  -->
<svg version="1.1" id="Layer_1" xmlns="http://www.w3.org/2000/svg" xmlns:xlink="http://www.w3.org/1999/xlink" x="0px" y="0px"
	 viewBox="0 0 26 18" style="enable-background:new 0 0 26 18;" xml:space="preserve">
<style type="text/css">
	.st0{fill:#838CC7;}
</style>
<title>data</title>
<desc>Created with Sketch.</desc>
<g id="data" transform="translate(1424.000000, 790.000000)">
	<g id="Rectangle-21">
		<path class="st0" d="M-1422-790h22c0.6,0,1,0.4,1,1l0,0c0,0.6-0.4,1-1,1h-22c-0.6,0-1-0.4-1-1l0,0
			C-1423-789.6-1422.6-790-1422-790z"/>
	</g>
	<g id="Rectangle-21-Copy">
		<path class="st0" d="M-1422-786h12c0.6,0,1,0.4,1,1l0,0c0,0.6-0.4,1-1,1h-12c-0.6,0-1-0.4-1-1l0,0
			C-1423-785.6-1422.6-786-1422-786z"/>
	</g>
	<g id="_x31_2_x2C_086">
		<path class="st0" d="M-1421.5-779.9h0.7v5.7h-0.9v-4.6c-0.3,0.3-0.8,0.5-1.3,0.7v-0.9c0.3-0.1,0.5-0.2,0.8-0.3
			C-1421.9-779.5-1421.7-779.7-1421.5-779.9z M-1417.6-780c0.6,0,1,0.2,1.4,0.5c0.4,0.3,0.5,0.7,0.5,1.2c0,0.5-0.2,0.9-0.6,1.3
			c-0.2,0.2-0.6,0.5-1.2,0.9c-0.6,0.4-0.9,0.7-1.1,1h2.8v0.8h-4c0-0.6,0.2-1.1,0.6-1.5c0.2-0.2,0.6-0.6,1.3-1
			c0.4-0.3,0.6-0.5,0.8-0.6c0.2-0.3,0.4-0.6,0.4-0.9c0-0.3-0.1-0.5-0.2-0.7c-0.2-0.2-0.4-0.2-0.7-0.2c-0.4,0-0.6,0.1-0.8,0.4
			c-0.2,0.2-0.3,0.6-0.3,1h-0.9c0-0.6,0.2-1.1,0.6-1.5C-1418.7-779.8-1418.2-780-1417.6-780z M-1414.2-775.4c0.2,0,0.4,0.1,0.5,0.3
			c0.1,0.2,0.2,0.4,0.2,0.7c0,0.4-0.1,0.8-0.4,1.1c-0.2,0.3-0.6,0.5-1,0.6v-0.5c0.2-0.1,0.4-0.2,0.6-0.4c0.1-0.2,0.2-0.4,0.2-0.6
			c0,0-0.1,0-0.2,0c-0.2,0-0.3-0.1-0.4-0.2s-0.2-0.3-0.2-0.4c0-0.2,0.1-0.3,0.2-0.5C-1414.5-775.3-1414.4-775.4-1414.2-775.4z
			 M-1410.7-780c0.7,0,1.2,0.3,1.6,0.8c0.4,0.5,0.5,1.2,0.5,2.1c0,0.9-0.2,1.6-0.5,2.1c-0.4,0.6-0.9,0.8-1.6,0.8
			c-0.7,0-1.2-0.3-1.6-0.8c-0.4-0.5-0.5-1.2-0.5-2.1c0-0.9,0.2-1.6,0.5-2.1C-1411.9-779.7-1411.3-780-1410.7-780z M-1410.7-779.2
			c-0.5,0-0.8,0.2-1,0.8c-0.1,0.3-0.2,0.8-0.2,1.4c0,0.6,0.1,1.1,0.2,1.4c0.2,0.5,0.5,0.8,1,0.8c0.4,0,0.8-0.3,1-0.8
			c0.1-0.4,0.2-0.8,0.2-1.4c0-0.6-0.1-1.1-0.2-1.4C-1409.9-779-1410.2-779.2-1410.7-779.2z M-1405.9-780c0.6,0,1.1,0.2,1.5,0.5
			c0.3,0.3,0.5,0.6,0.5,1.1c0,0.3-0.1,0.5-0.2,0.7c-0.1,0.2-0.4,0.4-0.6,0.5v0c0.3,0.1,0.5,0.2,0.7,0.5c0.2,0.3,0.3,0.6,0.3,0.9
			c0,0.5-0.2,0.9-0.6,1.2c-0.4,0.3-0.9,0.5-1.6,0.5c-0.7,0-1.2-0.2-1.6-0.5c-0.4-0.3-0.6-0.7-0.6-1.2c0-0.4,0.1-0.7,0.3-0.9
			c0.2-0.2,0.4-0.4,0.7-0.5v0c-0.3-0.1-0.5-0.3-0.6-0.5c-0.1-0.2-0.2-0.4-0.2-0.7c0-0.4,0.2-0.8,0.5-1.1
			C-1407-779.8-1406.5-780-1405.9-780z M-1405.9-779.3c-0.3,0-0.6,0.1-0.8,0.3c-0.2,0.2-0.3,0.4-0.3,0.6c0,0.3,0.1,0.5,0.2,0.6
			c0.2,0.2,0.5,0.3,0.9,0.3c0.4,0,0.7-0.1,0.9-0.3c0.1-0.2,0.2-0.4,0.2-0.6c0-0.2-0.1-0.4-0.3-0.6
			C-1405.3-779.2-1405.5-779.3-1405.9-779.3z M-1405.9-776.8c-0.4,0-0.7,0.1-0.9,0.3c-0.2,0.2-0.3,0.4-0.3,0.7
			c0,0.3,0.1,0.5,0.3,0.7c0.2,0.2,0.5,0.3,0.9,0.3c0.4,0,0.7-0.1,0.9-0.3c0.2-0.2,0.3-0.4,0.3-0.7c0-0.3-0.1-0.6-0.3-0.7
			C-1405.2-776.7-1405.5-776.8-1405.9-776.8z M-1401-780c1.1,0,1.7,0.5,1.9,1.6h-0.9c-0.1-0.5-0.4-0.8-1-0.8c-0.4,0-0.7,0.2-0.9,0.6
			c-0.2,0.4-0.3,0.8-0.3,1.3v0.1h0c0.2-0.2,0.4-0.4,0.6-0.5c0.2-0.1,0.5-0.2,0.8-0.2c0.6,0,1,0.2,1.3,0.5c0.3,0.4,0.5,0.8,0.5,1.4
			c0,0.6-0.2,1-0.6,1.4c-0.4,0.4-0.9,0.6-1.4,0.6c-0.7,0-1.2-0.3-1.6-0.8c-0.4-0.5-0.5-1.2-0.5-2c0-0.9,0.2-1.7,0.6-2.3
			C-1402.2-779.7-1401.7-780-1401-780z M-1401-777.2c-0.4,0-0.6,0.1-0.8,0.3c-0.2,0.2-0.3,0.5-0.3,0.9c0,0.4,0.1,0.6,0.3,0.9
			c0.2,0.2,0.5,0.3,0.8,0.3c0.3,0,0.6-0.1,0.8-0.3c0.2-0.2,0.3-0.5,0.3-0.9s-0.1-0.6-0.3-0.8C-1400.4-777.1-1400.7-777.2-1401-777.2
			z"/>
		<path class="st0" d="M-1415-772.4v-1l0.2-0.1c0.2-0.1,0.3-0.2,0.4-0.3c0,0,0.1-0.1,0.1-0.1c-0.2,0-0.4-0.1-0.5-0.2
			c-0.2-0.2-0.2-0.4-0.2-0.6c0-0.3,0.1-0.5,0.3-0.6c0.3-0.3,1-0.3,1.4,0.1c0.2,0.2,0.3,0.5,0.3,0.8c0,0.5-0.1,0.9-0.4,1.3
			c-0.3,0.4-0.7,0.6-1.1,0.7L-1415-772.4z M-1414.5-773L-1414.5-773c0.2-0.1,0.4-0.3,0.6-0.4c0.2-0.3,0.3-0.6,0.3-1
			c0-0.2-0.1-0.4-0.2-0.5c-0.1-0.1-0.2-0.2-0.3-0.2c-0.2,0-0.3,0.1-0.3,0.1c-0.1,0.1-0.1,0.1-0.1,0.3c0,0.1,0,0.2,0.1,0.3
			c0.1,0.1,0.3,0.1,0.4,0.1l0.3-0.1v0.4c0,0.3-0.1,0.5-0.3,0.7C-1414.2-773.3-1414.3-773.1-1414.5-773z M-1401-773.8
			c-0.8,0-1.4-0.3-1.8-0.9c-0.4-0.5-0.6-1.3-0.6-2.2c0-1,0.2-1.8,0.6-2.4c0.4-0.6,1-1,1.8-1c1.2,0,2,0.6,2.1,1.8l0,0.3h-1.4l0-0.2
			c-0.1-0.4-0.3-0.6-0.7-0.6c-0.3,0-0.5,0.1-0.7,0.4c-0.1,0.2-0.2,0.4-0.2,0.6c0.1,0,0.2-0.1,0.2-0.1c0.2-0.1,0.5-0.2,0.9-0.2
			c0.6,0,1.1,0.2,1.5,0.6c0.4,0.4,0.6,0.9,0.6,1.6c0,0.6-0.2,1.2-0.7,1.6C-1399.8-774-1400.4-773.8-1401-773.8z M-1401-779.8
			c-0.6,0-1,0.2-1.4,0.8c-0.4,0.5-0.5,1.2-0.5,2.1c0,0.8,0.2,1.4,0.5,1.9c0.3,0.4,0.8,0.7,1.4,0.7c0.5,0,0.9-0.2,1.3-0.5
			c0.3-0.3,0.5-0.7,0.5-1.2c0-0.5-0.1-0.9-0.4-1.2c-0.3-0.3-0.7-0.5-1.2-0.5c-0.3,0-0.5,0-0.7,0.1c-0.2,0.1-0.4,0.2-0.5,0.4
			l-0.1,0.1h-0.4l0-0.3c0-0.6,0.1-1.1,0.4-1.5c0.3-0.4,0.6-0.7,1.1-0.7c0.6,0,1,0.3,1.2,0.8h0.4
			C-1399.6-779.4-1400.1-779.8-1401-779.8z M-1405.9-773.8c-0.7,0-1.3-0.2-1.7-0.5c-0.4-0.4-0.6-0.8-0.6-1.4c0-0.4,0.1-0.8,0.4-1.1
			c0.1-0.1,0.2-0.3,0.4-0.3c-0.1-0.1-0.2-0.2-0.3-0.3c-0.2-0.2-0.2-0.5-0.2-0.9c0-0.5,0.2-0.9,0.6-1.3c0.4-0.4,0.9-0.5,1.6-0.5
			c0.7,0,1.2,0.2,1.6,0.6c0.4,0.3,0.6,0.8,0.6,1.3c0,0.3-0.1,0.6-0.2,0.9c-0.1,0.1-0.2,0.2-0.3,0.3c0.1,0.1,0.3,0.2,0.4,0.4
			c0.3,0.3,0.4,0.7,0.4,1.1c0,0.6-0.2,1.1-0.6,1.4C-1404.6-774-1405.1-773.8-1405.9-773.8z M-1405.9-779.8c-0.6,0-1,0.1-1.3,0.4
			c-0.3,0.2-0.4,0.5-0.4,0.9c0,0.2,0.1,0.4,0.2,0.6c0.1,0.2,0.3,0.3,0.5,0.4l0.2,0.1v0.4l-0.2,0.1c-0.2,0.1-0.4,0.2-0.6,0.4
			c-0.2,0.2-0.3,0.5-0.3,0.8c0,0.4,0.1,0.8,0.5,1c0.3,0.3,0.8,0.4,1.4,0.4c0.6,0,1.1-0.1,1.4-0.4c0.3-0.3,0.5-0.6,0.5-1
			c0-0.3-0.1-0.5-0.3-0.8c-0.2-0.2-0.3-0.3-0.6-0.4l-0.2,0v-0.4l0.2-0.1c0.2-0.1,0.4-0.2,0.5-0.4c0.1-0.2,0.1-0.4,0.1-0.6
			c0-0.4-0.1-0.6-0.4-0.9C-1404.9-779.6-1405.3-779.8-1405.9-779.8z M-1410.7-773.8c-0.8,0-1.3-0.3-1.8-0.9
			c-0.4-0.6-0.6-1.3-0.6-2.3s0.2-1.7,0.6-2.3c0.4-0.6,1-0.9,1.8-0.9c0.8,0,1.3,0.3,1.8,0.9c0.4,0.6,0.6,1.3,0.6,2.3
			s-0.2,1.7-0.6,2.3C-1409.3-774.1-1409.9-773.8-1410.7-773.8z M-1410.7-779.8c-0.6,0-1,0.2-1.3,0.7c-0.3,0.5-0.5,1.2-0.5,2
			s0.2,1.5,0.5,2c0.3,0.5,0.8,0.7,1.3,0.7c0.6,0,1-0.2,1.4-0.7c0.3-0.5,0.5-1.2,0.5-2s-0.2-1.5-0.5-2
			C-1409.6-779.5-1410.1-779.8-1410.7-779.8z M-1415.4-773.9h-4.5v-0.2c0-0.6,0.2-1.2,0.6-1.7c0.2-0.3,0.7-0.6,1.4-1.1
			c0.4-0.3,0.6-0.5,0.7-0.6c0.2-0.2,0.3-0.5,0.3-0.7c0-0.2-0.1-0.4-0.2-0.5c-0.1-0.1-0.3-0.2-0.6-0.2c-0.3,0-0.5,0.1-0.6,0.3
			c-0.1,0.2-0.2,0.5-0.2,0.9l0,0.2h-1.4l0-0.3c0-0.7,0.2-1.3,0.6-1.7c0.4-0.5,1-0.7,1.7-0.7c0.6,0,1.1,0.2,1.5,0.5
			c0.4,0.4,0.6,0.8,0.6,1.4c0,0.5-0.2,1.1-0.6,1.5c-0.2,0.2-0.6,0.5-1.2,1c-0.3,0.2-0.6,0.4-0.7,0.5h2.6V-773.9z M-1419.4-774.4h3.5
			v-0.3h-2.9l0.2-0.4c0.2-0.3,0.5-0.7,1.2-1.1c0.6-0.4,0.9-0.7,1.1-0.9c0.3-0.4,0.5-0.8,0.5-1.2c0-0.4-0.1-0.8-0.4-1.1
			c-0.3-0.3-0.7-0.4-1.2-0.4c-0.5,0-1,0.2-1.3,0.5c-0.3,0.3-0.4,0.7-0.5,1.1h0.4c0-0.4,0.2-0.7,0.3-0.9c0.2-0.3,0.6-0.5,1-0.5
			c0.4,0,0.7,0.1,0.9,0.3c0.2,0.2,0.3,0.5,0.3,0.9c0,0.4-0.1,0.7-0.4,1.1c-0.2,0.2-0.5,0.4-0.8,0.7c-0.8,0.6-1.1,0.9-1.3,1
			C-1419.2-775.2-1419.3-774.9-1419.4-774.4z M-1420.5-773.9h-1.4v-4.3c-0.3,0.2-0.6,0.3-1,0.4l-0.3,0.1v-1.5l0.2,0
			c0.2-0.1,0.5-0.2,0.8-0.3c0.3-0.2,0.5-0.3,0.7-0.5l0.1-0.1h1.1V-773.9z M-1421.4-774.4h0.4v-5.2h-0.3c-0.2,0.2-0.4,0.4-0.7,0.5
			c-0.2,0.1-0.5,0.2-0.7,0.3v0.4c0.3-0.1,0.6-0.3,0.9-0.5l0.4-0.4V-774.4z M-1405.9-774.6c-0.5,0-0.8-0.1-1.1-0.3
			c-0.3-0.2-0.4-0.5-0.4-0.9c0-0.4,0.1-0.7,0.4-0.9c0.2-0.2,0.6-0.4,1.1-0.4c0.5,0,0.8,0.1,1.1,0.4c0.2,0.2,0.4,0.5,0.4,0.9
			c0,0.4-0.1,0.6-0.4,0.9C-1405.1-774.7-1405.4-774.6-1405.9-774.6z M-1405.9-776.6c-0.3,0-0.6,0.1-0.7,0.2
			c-0.2,0.1-0.2,0.3-0.2,0.6c0,0.2,0.1,0.4,0.2,0.5c0.2,0.1,0.4,0.2,0.7,0.2c0.3,0,0.6-0.1,0.8-0.2c0.1-0.1,0.2-0.3,0.2-0.5
			c0-0.2-0.1-0.4-0.2-0.5C-1405.3-776.5-1405.5-776.6-1405.9-776.6z M-1401-774.6c-0.4,0-0.7-0.1-1-0.4s-0.4-0.6-0.4-1
			c0-0.4,0.1-0.8,0.4-1c0.2-0.3,0.6-0.4,1-0.4c0.4,0,0.8,0.1,1,0.4c0.2,0.3,0.4,0.6,0.4,1c0,0.4-0.1,0.8-0.4,1
			C-1400.3-774.7-1400.6-774.6-1401-774.6z M-1401-777c-0.3,0-0.5,0.1-0.6,0.2c-0.2,0.2-0.2,0.4-0.2,0.7c0,0.3,0.1,0.5,0.2,0.7
			c0.2,0.2,0.4,0.2,0.6,0.2c0.3,0,0.5-0.1,0.6-0.3c0.2-0.2,0.2-0.4,0.2-0.7c0-0.3-0.1-0.5-0.2-0.7
			C-1400.6-776.9-1400.8-777-1401-777z M-1410.7-774.6c-0.4,0-0.9-0.2-1.2-0.9c-0.1-0.4-0.2-0.9-0.2-1.5c0-0.6,0.1-1.1,0.2-1.5
			c0.3-0.8,0.8-0.9,1.2-0.9c0.4,0,0.9,0.2,1.2,0.9c0.1,0.4,0.2,0.9,0.2,1.5c0,0.6-0.1,1.1-0.2,1.5
			C-1409.8-774.8-1410.3-774.6-1410.7-774.6z M-1410.7-779c-0.2,0-0.5,0.1-0.7,0.6c-0.1,0.3-0.2,0.8-0.2,1.3c0,0.6,0.1,1,0.2,1.3
			c0.2,0.5,0.5,0.6,0.7,0.6c0.2,0,0.5-0.1,0.7-0.6c0.1-0.3,0.2-0.8,0.2-1.3c0-0.6-0.1-1-0.2-1.3
			C-1410.1-778.9-1410.5-779-1410.7-779z M-1405.9-777.3c-0.5,0-0.8-0.1-1-0.4c-0.2-0.2-0.3-0.5-0.3-0.8c0-0.3,0.1-0.6,0.3-0.8
			c0.2-0.2,0.6-0.3,1-0.3c0.4,0,0.7,0.1,1,0.3c0.2,0.2,0.3,0.5,0.3,0.8c0,0.3-0.1,0.6-0.3,0.8
			C-1405.1-777.4-1405.4-777.3-1405.9-777.3z M-1405.9-779c-0.3,0-0.5,0.1-0.6,0.2c-0.1,0.1-0.2,0.2-0.2,0.4c0,0.2,0,0.3,0.1,0.5
			c0.1,0.1,0.4,0.2,0.7,0.2c0.3,0,0.5-0.1,0.7-0.2c0.1-0.1,0.1-0.3,0.1-0.5c0-0.2-0.1-0.3-0.2-0.4
			C-1405.4-778.9-1405.6-779-1405.9-779z"/>
	</g>
</g>
</svg>
