<?xml version="1.0" encoding="UTF-8"?>
<svg width="24px" height="24px" viewBox="0 0 24 24" version="1.1" xmlns="http://www.w3.org/2000/svg" xmlns:xlink="http://www.w3.org/1999/xlink">
    <!-- Generator: Sketch 48.2 (47327) - http://www.bohemiancoding.com/sketch -->
    <title>line</title>
    <desc>Created with Sketch.</desc>
    <defs></defs>
    <g id="模板编辑" stroke="none" stroke-width="1" fill="none" fill-rule="evenodd" transform="translate(-309.000000, -163.000000)">
        <path d="M326,174 C325.447,174 325,174.447 325,175 L325,186 C325,186.553 325.447,187 326,187 C326.553,187 327,186.553 327,186 L327,175 C327,174.447 326.553,174 326,174 M330,170 C329.447,170 329,170.447 329,171 L329,186 C329,186.553 329.447,187 330,187 C330.553,187 331,186.553 331,186 L331,171 C331,170.447 330.553,170 330,170 M332,163 L328,163 C327.447,163 327,163.447 327,164 C327,164.553 327.447,165 328,165 L329.595,165 L322.004,172.59 L317.707,168.293 C317.526,168.112 317.276,168 317,168 C316.724,168 316.474,168.112 316.293,168.293 L309.293,175.293 C309.112,175.474 309,175.724 309,176 C309,176.553 309.447,177 310,177 C310.276,177 310.526,176.888 310.707,176.707 L317,170.414 L321.293,174.707 C321.474,174.888 321.724,175 322,175 C322.236,175 322.444,174.906 322.615,174.769 L322.625,174.781 L322.681,174.725 C322.696,174.71 322.71,174.696 322.725,174.681 L331,166.405 L331,168 C331,168.553 331.447,169 332,169 C332.553,169 333,168.553 333,168 L333,164 C333,163.447 332.553,163 332,163 M322,177 C321.447,177 321,177.447 321,178 L321,186 C321,186.553 321.447,187 322,187 C322.553,187 323,186.553 323,186 L323,178 C323,177.447 322.553,177 322,177 M310,179 C309.447,179 309,179.447 309,180 L309,186 C309,186.553 309.447,187 310,187 C310.553,187 311,186.553 311,186 L311,180 C311,179.447 310.553,179 310,179 M314,176 C313.447,176 313,176.447 313,177 L313,186 C313,186.553 313.447,187 314,187 C314.553,187 315,186.553 315,186 L315,177 C315,176.447 314.553,176 314,176 M318,174 C317.447,174 317,174.447 317,175 L317,186 C317,186.553 317.447,187 318,187 C318.553,187 319,186.553 319,186 L319,175 C319,174.447 318.553,174 318,174" id="line" fill="#838CC7"></path>
    </g>
</svg>