<?xml version="1.0" encoding="UTF-8"?>
<svg width="26px" height="24px" viewBox="0 0 26 24" version="1.1" xmlns="http://www.w3.org/2000/svg" xmlns:xlink="http://www.w3.org/1999/xlink">
    <!-- Generator: Sketch 48.2 (47327) - http://www.bohemiancoding.com/sketch -->
    <title>map</title>
    <desc>Created with Sketch.</desc>
    <defs></defs>
    <g id="模板编辑" stroke="none" stroke-width="1" fill="none" fill-rule="evenodd" transform="translate(-308.000000, -263.000000)">
        <path d="M332.986577,281.138255 L331.577181,281.841611 L331.598658,281.712752 L331.598658,281.696644 C331.598658,281.680537 331.598658,281.667114 331.601342,281.653691 L331.644295,281.390604 C331.824161,280.316779 332.009396,279.208054 332.191946,278.118121 C332.232215,277.887248 332.191946,277.69396 332.068456,277.514094 C331.950336,277.339597 331.832215,277.162416 331.716779,276.987919 L331.714094,276.985235 C331.663087,276.907383 331.609396,276.82953 331.558389,276.751678 C331.42953,276.558389 331.297987,276.362416 331.169128,276.166443 L330.857718,275.702013 L330.889933,275.669799 C330.927517,275.632215 330.965101,275.597315 331.002685,275.562416 C331.083221,275.487248 331.158389,275.41745 331.228188,275.342282 C331.4,275.157047 331.469799,274.915436 331.413423,274.679195 C331.357047,274.442953 331.190604,274.255034 330.951678,274.163758 C330.84698,274.12349 330.736913,274.088591 330.626846,274.053691 C330.573154,274.037584 330.519463,274.018792 330.465772,274 C330.248322,273.927517 330.033557,273.855034 329.808054,273.779866 L329.504698,273.677852 L330.033557,272.885906 L330.079195,272.92349 C330.087248,272.928859 330.095302,272.936913 330.100671,272.939597 C330.116779,272.950336 330.130201,272.961074 330.143624,272.977181 C330.304698,273.165101 330.546309,273.25906 330.787919,273.226846 C331.051007,273.191946 331.273826,273.01745 331.4,272.751678 C331.673826,272.179866 331.963758,271.6 332.242953,271.041611 L332.245638,271.036242 C332.44698,270.636242 332.656376,270.222819 332.855034,269.812081 C332.924832,269.667114 332.967785,269.497987 332.97047,269.344966 C332.978523,268.555705 332.978523,267.755705 332.975839,266.977181 L332.975839,266.969128 L332.975839,266.383893 C332.975839,265.865772 332.688591,265.578523 332.173154,265.578523 L331.595973,265.578523 C331.201342,265.578523 330.790604,265.578523 330.385235,265.573154 C330.291275,265.573154 330.181208,265.527517 330.114094,265.460403 C329.869799,265.224161 329.625503,264.979866 329.389262,264.74094 L329.386577,264.738255 C329.225503,264.577181 329.05906,264.410738 328.892617,264.24698 C328.656376,264.013423 328.35302,263.959732 328.065772,264.099329 C327.571812,264.34094 327.080537,264.585235 326.500671,264.883221 C326.240268,265.014765 326.108725,265.22953 326.100671,265.54094 C326.097987,265.642953 326.097987,265.744966 326.097987,265.844295 L326.097987,266.037584 C326.097987,266.107383 326.103356,266.179866 326.10604,266.255034 C326.116779,266.432215 326.130201,266.61745 326.065772,266.773154 C326.004027,266.926174 325.867114,267.044295 325.73557,267.157047 C325.679195,267.205369 325.625503,267.253691 325.574497,267.302013 C325.378523,267.503356 325.289933,267.739597 325.327517,267.97047 C325.365101,268.204027 325.526174,268.402685 325.778523,268.528859 C325.907383,268.593289 326.036242,268.660403 326.175839,268.727517 L326.377181,268.82953 L326.32349,268.883221 C326.248322,268.958389 326.175839,269.028188 326.103356,269.097987 C325.931544,269.26443 325.77047,269.420134 325.622819,269.589262 C325.485906,269.744966 325.383893,269.911409 325.324832,270.069799 C325.204027,270.4 325.091275,270.74094 324.983893,271.068456 C324.90604,271.304698 324.825503,271.548993 324.742282,271.787919 C324.712752,271.868456 324.626846,271.957047 324.543624,271.983893 C324.092617,272.142282 323.614765,272.303356 323.034899,272.488591 C322.957047,272.512752 322.860403,272.515436 322.774497,272.49396 C321.802685,272.257718 321.056376,272.069799 320.358389,271.889933 C320.232215,271.857718 320.111409,271.798658 320.014765,271.720805 C319.171812,271.052349 318.320805,270.37047 317.49396,269.710067 L317.381208,269.618792 C317.072483,269.371812 316.763758,269.124832 316.457718,268.880537 C316.143624,268.628188 315.837584,268.614765 315.499329,268.840268 C315.357047,268.934228 315.214765,269.028188 315.072483,269.124832 L315.02953,269.154362 C314.455034,269.53557 313.861745,269.927517 313.281879,270.327517 C313.161074,270.410738 313.040268,270.547651 312.954362,270.700671 C312.787919,270.998658 312.634899,271.312752 312.489933,271.616107 L312.428188,271.744966 C312.366443,271.871141 312.285906,271.94094 312.157047,271.983893 C311.762416,272.110067 311.365101,272.244295 310.981208,272.373154 L310.978523,272.373154 C310.761074,272.445638 310.546309,272.518121 310.328859,272.590604 C310.114094,272.663087 309.961074,272.791946 309.861745,272.990604 L309.571812,273.57047 L309.566443,273.583893 L309.115436,274.485906 C308.948993,274.824161 308.994631,275.108725 309.263087,275.379866 C309.49396,275.613423 309.727517,275.84698 309.955705,276.072483 L310.173154,276.289933 C310.401342,276.518121 310.632215,276.748993 310.863087,276.977181 L311.193289,277.307383 L310.991946,277.712752 C310.889933,277.919463 310.787919,278.12349 310.685906,278.327517 C310.468456,278.765101 310.575839,279.130201 310.994631,279.38255 C311.418792,279.637584 311.840268,279.889933 312.26443,280.144966 L312.344966,280.193289 C313.126174,280.663087 313.934228,281.146309 314.728859,281.626846 C314.895302,281.726174 315.069799,281.774497 315.265772,281.774497 L315.995973,281.774497 C316.463087,281.774497 316.946309,281.777181 317.421477,281.766443 C317.571812,281.763758 317.743624,281.72349 317.907383,281.648322 C318.108725,281.559732 318.307383,281.457718 318.503356,281.358389 C318.642953,281.288591 318.787919,281.213423 318.930201,281.146309 C318.997315,281.114094 319.107383,281.114094 319.177181,281.143624 C319.284564,281.189262 319.389262,281.242953 319.49396,281.296644 C319.574497,281.336913 319.657718,281.379866 319.74094,281.41745 C319.842953,281.465772 319.888591,281.53557 319.885906,281.651007 C319.883221,281.806711 319.883221,281.965101 319.883221,282.118121 L319.883221,282.520805 C319.880537,282.716779 319.934228,282.896644 320.04698,283.063087 C320.377181,283.551678 320.704698,284.042953 321.018792,284.520805 L321.05906,284.579866 L321.510067,285.256376 C321.681879,285.514094 321.899329,285.648322 322.14094,285.648322 C322.296644,285.648322 322.460403,285.591946 322.626846,285.481879 C322.734228,285.412081 322.838926,285.339597 322.946309,285.269799 L322.991946,285.240268 C323.456376,284.931544 323.936913,284.614765 324.404027,284.292617 C324.54094,284.198658 324.656376,284.185235 324.820134,284.241611 C325.308725,284.408054 325.808054,284.574497 326.288591,284.732886 C326.449664,284.786577 326.610738,284.840268 326.769128,284.891275 L326.793289,284.899329 L326.820134,284.891275 C326.857718,284.880537 326.892617,284.869799 326.927517,284.861745 L326.932886,284.861745 C327.002685,284.842953 327.061745,284.826846 327.118121,284.805369 C327.851007,284.512752 328.583893,284.220134 329.316779,283.924832 C329.856376,283.707383 330.395973,283.492617 330.93557,283.277852 C331.220134,283.165101 331.373154,282.969128 331.418792,282.660403 C331.437584,282.528859 331.461745,282.394631 331.488591,282.252349 C331.502013,282.18255 331.515436,282.107383 331.528859,282.02953 L331.555705,281.868456 L332.26443,283.277852 L332.374497,283.167785 C332.57047,282.974497 332.755705,282.789262 332.94094,282.598658 L332.957047,282.58255 L332.962416,282.561074 C332.965101,282.55302 332.967785,282.539597 332.967785,282.526174 C332.97047,282.144966 332.97047,281.766443 332.97047,281.363758 L332.986577,281.138255 Z M321.343624,281.594631 C321.359732,281.468456 321.354362,281.339597 321.348993,281.205369 C321.346309,281.162416 321.346309,281.116779 321.343624,281.073826 C321.338255,280.757047 321.201342,280.536913 320.924832,280.397315 L320.183893,280.026846 L320.130201,280 C319.891275,279.881879 319.652349,279.761074 319.413423,279.642953 C319.297987,279.583893 319.18255,279.557047 319.067114,279.557047 C318.948993,279.557047 318.828188,279.589262 318.704698,279.648322 C318.334228,279.836242 317.902013,280.053691 317.467114,280.265772 C317.389262,280.303356 317.300671,280.324832 317.214765,280.324832 C316.669799,280.330201 316.111409,280.330201 315.507383,280.324832 C315.424161,280.324832 315.343624,280.303356 315.284564,280.268456 C314.430872,279.758389 313.566443,279.240268 312.734228,278.74094 L312.361074,278.515436 C312.347651,278.507383 312.334228,278.496644 312.318121,278.485906 C312.310067,278.480537 312.302013,278.475168 312.291275,278.467114 L312.253691,278.440268 L312.422819,278.099329 L312.672483,277.6 C312.881879,277.178523 312.838926,276.910067 312.503356,276.577181 L312.092617,276.166443 L312.079195,276.15302 C311.64698,275.720805 311.201342,275.275168 310.761074,274.837584 C310.65906,274.738255 310.645638,274.64698 310.715436,274.526174 C310.75302,274.45906 310.785235,274.386577 310.81745,274.308725 C310.881879,274.158389 310.948993,274.005369 311.067114,273.900671 C311.190604,273.793289 311.362416,273.750336 311.528859,273.707383 C311.598658,273.688591 311.663087,273.672483 311.724832,273.651007 L311.95302,273.575839 C312.296644,273.460403 312.653691,273.342282 313.008054,273.226846 C313.257718,273.146309 313.426846,273.001342 313.539597,272.765101 C313.70604,272.416107 313.89396,272.040268 314.130201,271.583893 C314.173154,271.503356 314.237584,271.428188 314.312752,271.377181 C314.551678,271.216107 314.793289,271.055034 315.026846,270.896644 L315.032215,270.89396 C315.273826,270.732886 315.52349,270.566443 315.767785,270.4 C315.877852,270.324832 315.961074,270.327517 316.065772,270.410738 C316.618792,270.856376 317.177181,271.304698 317.719463,271.736913 C318.221477,272.139597 318.742282,272.555705 319.265772,272.977181 C319.434899,273.114094 319.604027,273.2 319.797315,273.245638 C320.167785,273.336913 320.548993,273.430872 320.887248,273.516779 L320.897987,273.519463 C321.496644,273.669799 322.116779,273.822819 322.728859,273.967785 C322.881879,274.002685 323.069799,273.997315 323.220134,273.948993 C323.695302,273.801342 324.175839,273.640268 324.637584,273.484564 L324.640268,273.484564 C324.903356,273.395973 325.174497,273.304698 325.445638,273.216107 C325.722148,273.124832 325.891275,272.95302 325.985235,272.671141 C326.205369,271.997315 326.425503,271.342282 326.637584,270.719463 C326.669799,270.625503 326.726174,270.534228 326.798658,270.45906 C327.06443,270.187919 327.338255,269.914094 327.601342,269.651007 L327.604027,269.648322 L328.071141,269.181208 C328.269799,268.98255 328.355705,268.746309 328.320805,268.512752 C328.283221,268.279195 328.124832,268.080537 327.872483,267.951678 C327.751678,267.889933 327.633557,267.830872 327.510067,267.769128 L327.273826,267.651007 L327.324832,267.597315 C327.488591,267.428188 327.558389,267.240268 327.55302,266.966443 C327.550336,266.845638 327.55302,266.724832 327.55302,266.604027 C327.55302,266.453691 327.555705,266.297987 327.550336,266.147651 C327.547651,266.013423 327.595973,265.932886 327.708725,265.884564 C327.826846,265.833557 327.950336,265.771812 328.07651,265.702013 C328.186577,265.640268 328.272483,265.651007 328.361074,265.744966 C328.530201,265.916779 328.699329,266.088591 328.865772,266.252349 L328.871141,266.257718 C329.034899,266.421477 329.206711,266.590604 329.37047,266.762416 C329.542282,266.939597 329.738255,267.020134 329.98255,267.020134 L329.993289,267.020134 C330.336913,267.01745 330.667114,267.01745 331.018792,267.01745 L331.526174,267.01745 L331.528859,267.068456 C331.528859,267.087248 331.531544,267.10604 331.531544,267.122148 L331.531544,267.130201 C331.534228,267.17047 331.536913,267.210738 331.536913,267.251007 L331.536913,267.589262 C331.536913,268.080537 331.539597,268.587919 331.534228,269.087248 C331.534228,269.181208 331.510067,269.283221 331.467114,269.369128 C331.241611,269.828188 331.008054,270.295302 330.78255,270.746309 L330.761074,270.789262 C330.691275,270.928859 330.621477,271.065772 330.551678,271.205369 L330.524832,271.25906 L330.473826,271.226846 C330.463087,271.221477 330.455034,271.216107 330.444295,271.210738 C330.425503,271.2 330.406711,271.189262 330.387919,271.175839 C330.208054,271.041611 330.004027,270.985235 329.808054,271.01745 C329.612081,271.049664 329.440268,271.167785 329.314094,271.35302 C329.016107,271.793289 328.718121,272.241611 328.428188,272.67651 L328.414765,272.697987 C328.29396,272.877852 328.175839,273.057718 328.055034,273.237584 C328.030872,273.275168 328.006711,273.310067 327.98255,273.347651 L327.974497,273.361074 C327.910067,273.455034 327.842953,273.554362 327.781208,273.653691 C327.652349,273.857718 327.620134,274.085906 327.692617,274.297987 C327.765101,274.507383 327.926174,274.665772 328.151678,274.743624 C328.409396,274.834899 328.66443,274.920805 328.93557,275.009396 L328.948993,275.014765 C329.061745,275.052349 329.174497,275.089933 329.289933,275.127517 L329.343624,275.146309 L329.322148,275.2 C329.319463,275.208054 329.314094,275.218792 329.311409,275.226846 L329.311409,275.22953 C329.30604,275.245638 329.297987,275.26443 329.289933,275.280537 C329.163758,275.548993 329.18255,275.801342 329.348993,276.051007 C329.488591,276.257718 329.625503,276.46443 329.765101,276.673826 C330.041611,277.087248 330.326174,277.514094 330.610738,277.93557 C330.691275,278.053691 330.718121,278.166443 330.69396,278.300671 C330.608054,278.813423 330.519463,279.328859 330.433557,279.841611 L330.428188,279.865772 C330.312752,280.547651 330.197315,281.251007 330.07651,281.946309 C330.063087,282.018792 329.995973,282.102013 329.926174,282.131544 C328.938255,282.531544 327.92349,282.936913 326.911409,283.336913 C326.828188,283.369128 326.728859,283.358389 326.66443,283.336913 C326.07651,283.146309 325.442953,282.936913 324.804027,282.719463 C324.516779,282.620134 324.267114,282.655034 324.014765,282.82953 C323.673826,283.063087 323.322148,283.296644 322.983893,283.522148 L322.978523,283.524832 C322.841611,283.616107 322.704698,283.704698 322.57047,283.795973 C322.538255,283.81745 322.508725,283.836242 322.471141,283.860403 C322.452349,283.873826 322.430872,283.884564 322.409396,283.900671 L322.363758,283.930201 L322.334228,283.887248 C322.275168,283.798658 322.216107,283.707383 322.162416,283.618792 L322.159732,283.616107 C322.033557,283.414765 321.912752,283.224161 321.767785,283.049664 C321.418792,282.609396 321.27651,282.134228 321.343624,281.594631 Z M327.30604,285.471141 C327.18255,285.371812 327.069799,285.253691 326.962416,285.14094 L326.84698,285.020134 L326.148993,286.418792 L327.555705,286.418792 L327.55302,286.33557 C327.550336,286.252349 327.547651,286.169128 327.561074,286.091275 C327.595973,285.833557 327.518121,285.642953 327.30604,285.471141 Z" id="map" stroke="#838CC7" stroke-width="0.5" fill="#838CC7" fill-rule="nonzero"></path>
    </g>
</svg>