<?xml version="1.0" encoding="UTF-8"?>
<svg width="24px" height="24px" viewBox="0 0 24 24" version="1.1" xmlns="http://www.w3.org/2000/svg" xmlns:xlink="http://www.w3.org/1999/xlink">
    <!-- Generator: Sketch 48.1 (47250) - http://www.bohemiancoding.com/sketch -->
    <title>percentBar</title>
    <desc>Created with Sketch.</desc>
    <defs></defs>
    <g id="视觉规范" stroke="none" stroke-width="1" fill="none" fill-rule="evenodd" transform="translate(-1997.000000, -713.000000)">
        <path d="M2003,723 L2007,723 L2009,723 L2009,735 L2011,735 L2011,717 L2013,717 L2017,717 L2019,717 L2019,735 L2021,735 L2021,737 L1997,737 L1997,735 L1997,713 L1999,713 L1999,735 L2001,735 L2001,723 L2003,723 Z M2003,725 L2003,735 L2007,735 L2007,725 L2003,725 Z M2017,719 L2013,719 L2013,735 L2017,735 L2017,719 Z" id="percentBar" fill="#838CC7"></path>
    </g>
</svg>