<?xml version="1.0" encoding="UTF-8"?>
<svg width="24px" height="24px" viewBox="0 0 24 24" version="1.1" xmlns="http://www.w3.org/2000/svg" xmlns:xlink="http://www.w3.org/1999/xlink">
    <!-- Generator: Sketch 48.1 (47250) - http://www.bohemiancoding.com/sketch -->
    <title>percentHbar</title>
    <desc>Created with Sketch.</desc>
    <defs></defs>
    <g id="视觉规范" stroke="none" stroke-width="1" fill="none" fill-rule="evenodd" transform="translate(-2153.000000, -713.000000)">
        <path d="M2158,733 L2156,733 L2156,720 L2158,720 L2162,720 L2164,720 L2164,733 L2162,733 L2158,733 Z M2158,731 L2162,731 L2162,722 L2158,722 L2158,731 Z M2168,733 L2166,733 L2166,713 L2168,713 L2172,713 L2174,713 L2174,733 L2172,733 L2168,733 Z M2168,731 L2172,731 L2172,715 L2168,715 L2168,731 Z M2153,735 L2177,735 L2177,737 L2153,737 L2153,735 Z" id="percentHbar" fill="#838CC7" transform="translate(2165.000000, 725.000000) rotate(-270.000000) translate(-2165.000000, -725.000000) "></path>
    </g>
</svg>