<?xml version="1.0" encoding="UTF-8"?>
<svg width="24px" height="24px" viewBox="0 0 24 24" version="1.1" xmlns="http://www.w3.org/2000/svg" xmlns:xlink="http://www.w3.org/1999/xlink">
    <!-- Generator: Sketch 48.2 (47327) - http://www.bohemiancoding.com/sketch -->
    <title>pie</title>
    <desc>Created with Sketch.</desc>
    <defs></defs>
    <g id="模板编辑" stroke="none" stroke-width="1" fill="none" fill-rule="evenodd" transform="translate(-359.000000, -163.000000)">
        <path d="M371,185 C365.477,185 361,180.522 361,175 C361,169.814 364.947,165.553 370,165.051 L370,175 C370,175.553 370.447,176 371,176 L380.949,176 C380.447,181.053 376.185,185 371,185 L371,185 Z M372,172.414 L377.211,167.203 C377.611,167.524 377.991,167.87 378.338,168.247 L372.586,174 L372,174 L372,172.414 L372,172.414 Z M372,167.414 L373.958,165.456 C374.493,165.624 375.011,165.831 375.502,166.084 L372,169.586 L372,167.414 L372,167.414 Z M379.543,169.871 C379.82,170.333 380.054,170.822 380.26,171.325 L377.586,174 L375.414,174 L379.543,169.871 L379.543,169.871 Z M380.875,173.539 C380.897,173.693 380.934,173.844 380.949,174 L380.414,174 L380.875,173.539 L380.875,173.539 Z M371,163 C364.373,163 359,168.373 359,175 C359,181.627 364.373,187 371,187 C377.627,187 383,181.627 383,175 C383,168.373 377.627,163 371,163 L371,163 Z" id="pie" fill="#838CC7"></path>
    </g>
</svg>