<?xml version="1.0" encoding="UTF-8"?>
<svg width="26px" height="26px" viewBox="0 0 26 26" version="1.1" xmlns="http://www.w3.org/2000/svg" xmlns:xlink="http://www.w3.org/1999/xlink">
    <!-- Generator: Sketch 48.2 (47327) - http://www.bohemiancoding.com/sketch -->
    <title>radar</title>
    <desc>Created with Sketch.</desc>
    <defs></defs>
    <g id="模板编辑" stroke="none" stroke-width="1" fill="none" fill-rule="evenodd" transform="translate(-358.000000, -212.000000)">
        <path d="M370.991985,236.976141 C364.621917,236.975484 359.365405,231.988245 359.024935,225.622161 C358.853857,222.422948 359.938822,219.348599 362.08002,216.965407 C364.221172,214.582262 367.162267,213.175576 370.361479,213.004404 L371.645176,213.004451 C374.602676,213.162733 377.387129,214.404247 379.483238,216.500355 C381.579393,218.596417 382.820907,221.380917 382.979189,224.340948 C383.150268,227.54016 382.065256,230.614509 379.924104,232.997607 C377.782953,235.380846 374.841858,236.787486 371.642692,236.958705 C371.426524,236.970282 371.207872,236.976141 370.992969,236.976141 L370.991985,236.976141 Z M360.368018,225.652908 C360.706987,230.997162 364.992665,235.283918 370.337013,235.624106 L370.387164,235.627293 L370.387164,231.96406 L370.344465,231.960029 C367.000656,231.645198 364.345145,228.989593 364.03022,225.645456 L364.026189,225.602756 L360.364784,225.602756 L360.368018,225.652908 Z M373.127371,231.655884 C372.649523,231.808877 372.156609,231.910043 371.657128,231.957638 L371.614335,231.961716 L371.614335,235.625043 L371.664534,235.621903 C377.008788,235.283074 381.295591,230.997303 381.636294,225.652955 L381.639482,225.60285 L377.97353,225.60285 L377.969686,225.645737 C377.923381,226.157201 377.821139,226.662048 377.664792,227.151227 C377.317868,226.925514 376.931522,226.767188 376.525972,226.684534 C376.626082,226.348356 376.695377,226.003761 376.733001,225.655017 L376.738578,225.60285 L372.601575,225.60285 L372.589576,225.632191 C372.41381,226.062324 372.065232,226.406965 371.633459,226.577762 L371.603555,226.589574 L371.603555,230.72714 L371.65605,230.721234 C371.983759,230.684173 372.307694,230.619129 372.624307,230.526814 C372.715527,230.932786 372.886528,231.316578 373.127371,231.655884 Z M365.266953,225.655908 C365.57794,228.328527 367.661769,230.412402 370.334575,230.723437 L370.387164,230.729577 L370.387164,226.589808 L370.357776,226.577856 C369.930081,226.404575 369.585533,226.059887 369.412346,225.632285 L369.32151,225.649955 L369.368662,225.603366 L365.260766,225.603366 L365.266953,225.655908 Z M376.366424,220.490747 L376.393797,220.523791 C377.295731,221.610162 377.841167,222.927278 377.971327,224.332698 L377.975264,224.375538 L381.636622,224.375538 L381.633623,224.32548 C381.487901,221.973785 380.547392,219.706927 378.985283,217.942616 L378.952098,217.905026 L376.366424,220.490747 Z M372.585779,224.282406 L372.585779,224.375538 L376.738531,224.375538 L376.732672,224.323043 C376.612439,223.258971 376.197035,222.249725 375.53339,221.40932 L375.500533,221.367793 L372.585779,224.282406 Z M370.334575,219.25528 C367.661769,219.566314 365.577847,221.650143 365.266765,224.322856 L365.260625,224.375492 L369.400394,224.375492 L369.412299,224.34601 C369.585533,223.918501 369.93008,223.574001 370.357683,223.40086 L370.387118,223.388908 L370.387118,219.249233 L370.334575,219.25528 Z M370.336966,214.356345 C364.993696,214.696346 360.707925,218.98207 360.367971,224.32534 L360.364784,224.375492 L364.026142,224.375492 L364.030173,224.332745 C364.345098,220.988843 367.000609,218.333331 370.344418,218.018594 L370.387118,218.014516 L370.387118,214.353204 L370.336966,214.356345 Z M371.616773,223.413 L371.709952,223.413 L374.624612,220.498387 L374.583084,220.465437 C373.742917,219.798301 372.732693,219.379813 371.666878,219.257389 L371.614289,219.251343 L371.616773,223.413 Z M371.614289,218.014563 L371.657175,218.018547 C373.062924,218.148801 374.380087,218.694283 375.46613,219.595983 L375.499221,219.623403 L378.084895,217.03787 L378.047351,217.004591 C376.282947,215.442528 374.016135,214.501972 371.664393,214.356345 L371.614289,214.353298 L371.614289,218.014563 Z M375.301801,231.112277 C374.286392,231.112277 373.460295,230.308302 373.460295,229.320032 C373.460295,228.331855 374.286392,227.527927 375.301801,227.527927 C376.317304,227.527927 377.143589,228.331855 377.143589,229.320032 C377.143589,230.308255 376.317304,231.112277 375.301801,231.112277 Z" id="radar" stroke="#838CC7" stroke-width="0.5" fill="#838CC7" fill-rule="nonzero"></path>
    </g>
</svg>