<?xml version="1.0" encoding="UTF-8"?>
<svg width="24px" height="23px" viewBox="0 0 24 23" version="1.1" xmlns="http://www.w3.org/2000/svg" xmlns:xlink="http://www.w3.org/1999/xlink">
    <!-- Generator: Sketch 48.2 (47327) - http://www.bohemiancoding.com/sketch -->
    <title>scatter</title>
    <desc>Created with Sketch.</desc>
    <defs></defs>
    <g id="模板编辑" stroke="none" stroke-width="1" fill="none" fill-rule="evenodd" transform="translate(-409.000000, -264.000000)">
        <path d="M409,281.832814 C409,281.345894 409.394727,280.951168 409.881647,280.951168 C410.368566,280.951168 410.763293,281.345894 410.763293,281.832814 C410.763293,282.147796 410.595252,282.438852 410.32247,282.596343 C410.049687,282.753833 409.713606,282.753833 409.440823,282.596343 C409.168041,282.438852 409,282.147796 409,281.832814 Z M409,276.856446 C409,276.369526 409.394727,275.9748 409.881647,275.9748 C410.368566,275.9748 410.763293,276.369526 410.763293,276.856446 C410.763293,277.171428 410.595252,277.462484 410.32247,277.619975 C410.049687,277.777466 409.713606,277.777466 409.440823,277.619975 C409.168041,277.462484 409,277.171428 409,276.856446 Z M412.969535,281.460534 C412.969535,280.632107 413.641108,279.960534 414.469535,279.960534 C415.297962,279.960534 415.969535,280.632107 415.969535,281.460534 C415.969535,282.288961 415.297962,282.960534 414.469535,282.960534 C413.641108,282.960534 412.969535,282.288961 412.969535,281.460534 Z M415.969535,278.842181 C415.969535,278.355261 416.364262,277.960534 416.851182,277.960534 C417.338102,277.960534 417.732828,278.355261 417.732828,278.842181 C417.732828,279.329101 417.338102,279.723827 416.851182,279.723827 C416.364262,279.723827 415.969535,279.329101 415.969535,278.842181 Z M419.969535,285.842181 C419.969535,285.355261 420.364262,284.960534 420.851182,284.960534 C421.338102,284.960534 421.732828,285.355261 421.732828,285.842181 C421.732828,286.329101 421.338102,286.723827 420.851182,286.723827 C420.364262,286.723827 419.969535,286.329101 419.969535,285.842181 Z M419.969535,280.842181 C419.969535,280.355261 420.364262,279.960534 420.851182,279.960534 C421.338102,279.960534 421.732828,280.355261 421.732828,280.842181 C421.732828,281.329101 421.338102,281.723827 420.851182,281.723827 C420.364262,281.723827 419.969535,281.329101 419.969535,280.842181 Z M416.969535,274.960534 C416.969535,274.408249 417.41725,273.960534 417.969535,273.960534 C418.52182,273.960534 418.969535,274.408249 418.969535,274.960534 C418.969535,275.512819 418.52182,275.960534 417.969535,275.960534 C417.41725,275.960534 416.969535,275.512819 416.969535,274.960534 Z M417.969535,265.842181 C417.969535,265.355261 418.364262,264.960534 418.851182,264.960534 C419.338102,264.960534 419.732828,265.355261 419.732828,265.842181 C419.732828,266.329101 419.338102,266.723827 418.851182,266.723827 C418.364262,266.723827 417.969535,266.329101 417.969535,265.842181 Z M419.969535,271.960534 C419.969535,270.855965 420.864966,269.960534 421.969535,269.960534 C423.074105,269.960534 423.969535,270.855965 423.969535,271.960534 C423.969535,273.065104 423.074105,273.960534 421.969535,273.960534 C420.864966,273.960534 419.969535,273.065104 419.969535,271.960534 Z M424.758498,265.5 C424.758498,264.671573 425.430071,264 426.258498,264 C427.086925,264 427.758498,264.671573 427.758498,265.5 C427.758498,266.328427 427.086925,267 426.258498,267 C425.430071,267 424.758498,266.328427 424.758498,265.5 Z M426.969535,271.842181 C426.969535,271.355261 427.364262,270.960534 427.851182,270.960534 C428.338102,270.960534 428.732828,271.355261 428.732828,271.842181 C428.732828,272.329101 428.338102,272.723827 427.851182,272.723827 C427.364262,272.723827 426.969535,272.329101 426.969535,271.842181 Z M423.876852,278.9748 C423.876852,277.317946 425.219997,275.9748 426.876852,275.9748 C428.533706,275.9748 429.876852,277.317946 429.876852,278.9748 C429.876852,280.631654 428.533706,281.9748 426.876852,281.9748 C425.219997,281.9748 423.876852,280.631654 423.876852,278.9748 Z M429.423843,281.832814 C429.423843,281.345894 429.81857,280.951168 430.30549,280.951168 C430.79241,280.951168 431.187136,281.345894 431.187136,281.832814 C431.187136,282.319734 430.79241,282.714461 430.30549,282.714461 C429.81857,282.714461 429.423843,282.319734 429.423843,281.832814 Z M431.187136,275.093153 C431.187136,274.606233 431.581863,274.211507 432.068783,274.211507 C432.555703,274.211507 432.950429,274.606233 432.950429,275.093153 C432.950429,275.580073 432.555703,275.9748 432.068783,275.9748 C431.581863,275.9748 431.187136,275.580073 431.187136,275.093153 Z M411.954304,276.856446 C411.954304,276.541464 412.122345,276.250409 412.395127,276.092918 C412.667909,275.935427 413.003991,275.935427 413.276774,276.092918 C413.549556,276.250409 413.717597,276.541464 413.717597,276.856446 C413.717597,277.343366 413.32287,277.738093 412.83595,277.738093 C412.34903,277.738093 411.954304,277.343366 411.954304,276.856446 Z M411.969535,267.842181 C411.969535,267.355261 412.364262,266.960534 412.851182,266.960534 C413.338102,266.960534 413.732828,267.355261 413.732828,267.842181 C413.732828,268.329101 413.338102,268.723827 412.851182,268.723827 C412.364262,268.723827 411.969535,268.329101 411.969535,267.842181 Z M411.969535,272.460534 C411.969535,271.632107 412.641108,270.960534 413.469535,270.960534 C414.297962,270.960534 414.969535,271.632107 414.969535,272.460534 C414.969535,273.288961 414.297962,273.960534 413.469535,273.960534 C412.641108,273.960534 411.969535,273.288961 411.969535,272.460534 Z" id="scatter" fill="#838CC7" fill-rule="nonzero"></path>
    </g>
</svg>