<?xml version="1.0" encoding="UTF-8"?>
<svg width="24px" height="22px" viewBox="0 0 24 22" version="1.1" xmlns="http://www.w3.org/2000/svg" xmlns:xlink="http://www.w3.org/1999/xlink">
    <!-- Generator: Sketch 48.2 (47327) - http://www.bohemiancoding.com/sketch -->
    <title>stack</title>
    <desc>Created with Sketch.</desc>
    <defs></defs>
    <g id="模板编辑" stroke="none" stroke-width="1" fill="none" fill-rule="evenodd" transform="translate(-309.000000, -215.000000)">
        <path d="M312.195745,231.348936 L312.195745,233.52766 L332.982979,233.52766 L332.982979,235.52766 L312.195745,235.52766 L312.195745,236.798512 L310.195745,236.798512 L310.195745,235.52766 L309.017021,235.52766 L309.017021,233.52766 L310.195745,233.52766 L310.195745,215.008511 L312.195745,215.008511 L312.195745,217.187234 L315.642553,217.187234 L315.642553,220.455319 L312.195745,220.455319 L312.195745,222.634043 L321.089362,222.634043 L321.089362,225.902128 L312.195745,225.902128 L312.195745,228.080851 L316.731915,228.080851 L316.731915,231.348936 L312.195745,231.348936 Z M318.821277,217.187234 L324.268085,217.187234 L324.268085,220.455319 L318.821277,220.455319 L318.821277,217.187234 Z M324.268085,222.634043 L331.893617,222.634043 L331.893617,225.902128 L324.268085,225.902128 L324.268085,222.634043 Z M319.910638,228.080851 L326.446809,228.080851 L326.446809,231.348936 L319.910638,231.348936 L319.910638,228.080851 Z" id="stack" fill="#838CC7" fill-rule="nonzero"></path>
    </g>
</svg>