<?xml version="1.0" encoding="UTF-8"?>
<svg width="24px" height="22px" viewBox="0 0 24 22" version="1.1" xmlns="http://www.w3.org/2000/svg" xmlns:xlink="http://www.w3.org/1999/xlink">
    <!-- Generator: Sketch 48.1 (47250) - http://www.bohemiancoding.com/sketch -->
    <title>stack</title>
    <desc>Created with Sketch.</desc>
    <defs></defs>
    <g id="视觉规范" stroke="none" stroke-width="1" fill="none" fill-rule="evenodd" transform="translate(-1892.000000, -715.000000)">
        <path d="M1895.18324,731.497905 L1895.18324,733.697626 L1916,733.697626 L1916,735.7169 L1895.18324,735.7169 L1895.18324,737 L1893.1804,737 L1893.1804,735.7169 L1892,735.7169 L1892,733.697626 L1893.1804,733.697626 L1893.1804,715 L1895.18324,715 L1895.18324,717.199721 L1898.63494,717.199721 L1898.63494,720.499302 L1895.18324,720.499302 L1895.18324,722.699022 L1904.08949,722.699022 L1904.08949,725.998603 L1895.18324,725.998603 L1895.18324,728.198324 L1899.72585,728.198324 L1899.72585,731.497905 L1895.18324,731.497905 Z M1901.81818,717.199721 L1907.27273,717.199721 L1907.27273,720.499302 L1901.81818,720.499302 L1901.81818,717.199721 Z M1907.27273,722.699022 L1914.90909,722.699022 L1914.90909,725.998603 L1907.27273,725.998603 L1907.27273,722.699022 Z M1902.90909,728.198324 L1909.45455,728.198324 L1909.45455,731.497905 L1902.90909,731.497905 L1902.90909,728.198324 Z" id="stack" fill="#838CC7" fill-rule="nonzero"></path>
    </g>
</svg>