<?xml version="1.0" encoding="UTF-8"?>
<svg width="280px" height="123px" viewBox="0 0 280 123" version="1.1" xmlns="http://www.w3.org/2000/svg" xmlns:xlink="http://www.w3.org/1999/xlink">
    <!-- Generator: Sketch 49.1 (51147) - http://www.bohemiancoding.com/sketch -->
    <title>数据源接入</title>
    <desc>Created with Sketch.</desc>
    <defs>
        <linearGradient x1="50%" y1="0%" x2="50%" y2="100%" id="linearGradient-1">
            <stop stop-color="#D9E1E9" offset="0%"></stop>
            <stop stop-color="#FFFFFF" stop-opacity="0" offset="100%"></stop>
        </linearGradient>
    </defs>
    <g id="控制台首页" stroke="none" stroke-width="1" fill="none" fill-rule="evenodd">
        <g transform="translate(-611.000000, -165.000000)" id="数据源接入">
            <g transform="translate(611.000000, 165.000000)">
                <path d="M94.6180354,11.8980629 C94.6180354,18.4419623 89.3132441,23.7473939 82.7687044,23.7473939 C76.224805,23.7473939 70.9200137,18.4419623 70.9200137,11.8980629 C70.9200137,5.35416352 76.224805,0.0487318468 82.7687044,0.0487318468 C89.3132441,0.0487318468 94.6180354,5.35416352 94.6180354,11.8980629" id="Fill-3" fill="#FFA24A"></path>
                <path d="M75.2209034,15.5553208 C75.8311721,14.9597804 76.8070898,14.9661841 77.4103145,15.5687684 L100.539051,38.6975049 L51.9640938,38.6975049 L75.2209034,15.5553208 Z" id="Fill-5" fill="#D5DDE6"></path>
                <path d="M100.74416,1.6773745 C101.720718,0.725150372 103.28193,0.73475586 104.246321,1.69914694 L141.244743,38.6975689 L63.540821,38.6975689 L100.74416,1.6773745 Z" id="Fill-7" fill="#EAEDF0"></path>
                <path d="M132.405901,25.6268039 C129.340469,25.6268039 126.54207,26.7608919 124.400046,28.6294797 C122.197187,26.440709 119.162493,25.0876158 115.812098,25.0876158 C113.701452,25.0876158 111.716318,25.6248828 109.985409,26.5687822 C107.123613,25.2028816 103.920503,24.4363636 100.53809,24.4363636 C91.3507604,24.4363636 83.4851458,30.0799085 80.207753,38.0876844 C79.2747399,37.9096627 78.3129102,37.8129674 77.3280274,37.8129674 C76.0344883,37.8129674 74.7787307,37.97498 73.5793253,38.2778731 C72.308199,31.1256261 66.0639909,25.6940423 58.5467353,25.6940423 C50.1105546,25.6940423 43.2727273,32.53251 43.2727273,40.9680503 C43.2727273,49.4035906 50.1105546,56.2420583 58.5467353,56.2420583 C59.8402744,56.2420583 61.0953917,56.0794054 62.294797,55.7771527 C63.5665638,62.9287593 69.8107719,68.3609834 77.3280274,68.3609834 C81.3578502,68.3609834 85.0201029,66.7978502 87.7493425,64.2479131 C91.3520412,66.8337107 95.7654431,68.3609834 100.53809,68.3609834 C112.306095,68.3609834 121.910943,59.1051344 122.472544,47.4760892 C122.945134,47.1674328 123.394031,46.8261178 123.817953,46.4566266 C126.020812,48.6453974 129.054866,49.9984906 132.405901,49.9984906 C139.136146,49.9984906 144.592064,44.5425729 144.592064,37.8129674 C144.592064,31.0827216 139.136146,25.6268039 132.405901,25.6268039" id="Fill-9" fill="#FFFFFF"></path>
                <path d="M273.917334,104.639352 L1.33930814,104.639352 C0.465071319,101.255345 0,97.7067883 0,94.0496073 C0,70.7376575 18.8966066,51.8392812 42.2103261,51.8392812 C62.9845596,51.8392812 80.240676,66.849678 83.7534841,86.6151959 C87.0680883,85.7781389 90.5384241,85.3304107 94.1131708,85.3304107 C96.8349334,85.3304107 99.4929877,85.5976319 102.071406,86.0896019 C111.128611,63.9597962 132.865549,48.3636364 158.255099,48.3636364 C167.602531,48.3636364 176.454453,50.4819392 184.363138,54.2566594 C189.146573,51.6481561 194.632571,50.1633975 200.465425,50.1633975 C209.724373,50.1633975 218.11087,53.9027241 224.198558,59.9514787 C230.118126,54.7875624 237.851613,51.6534651 246.323054,51.6534651 C264.922355,51.6534651 280,66.7311097 280,85.3304107 C280,92.5139021 277.750458,99.1722364 273.917334,104.639352 Z" id="Combined-Shape" fill="url(#linearGradient-1)"></path>
                <path d="M205.286713,104.125874 L205.286713,36.993007 C205.286713,26.7888112 187.970909,19.0909091 165.006993,19.0909091 C142.043077,19.0909091 124.727273,26.7888112 124.727273,36.993007 L124.727273,104.125874 C124.727273,114.33007 142.043077,122.027972 165.006993,122.027972 C187.970909,122.027972 205.286713,114.33007 205.286713,104.125874 L205.286713,104.125874 Z" id="Path" fill="#FFFFFF"></path>
                <path d="M200.811189,59.3706294 C200.811189,65.7213986 186.104615,72.7972028 165.006993,72.7972028 C143.909371,72.7972028 129.202797,65.7213986 129.202797,59.3706294 L129.202797,45.4383217 C135.772867,51.1535664 149.011469,54.8951049 165.006993,54.8951049 C181.002517,54.8951049 194.241119,51.1535664 200.811189,45.4383217 L200.811189,59.3706294 L200.811189,59.3706294 Z" id="Path" fill="#8C9BAF"></path>
                <path d="M129.202797,67.8159441 C135.772867,73.5311888 149.011469,77.2727273 165.006993,77.2727273 C181.002517,77.2727273 194.241119,73.5311888 200.811189,67.8159441 L200.811189,81.7482517 C200.811189,88.099021 186.104615,95.1748252 165.006993,95.1748252 C143.909371,95.1748252 129.202797,88.099021 129.202797,81.7482517 L129.202797,67.8159441 L129.202797,67.8159441 Z" id="Path" fill="#8C9BAF"></path>
                <path d="M165.006993,23.5664336 C186.104615,23.5664336 200.811189,30.6422378 200.811189,36.993007 C200.811189,43.3437762 186.104615,50.4195804 165.006993,50.4195804 C143.909371,50.4195804 129.202797,43.3437762 129.202797,36.993007 C129.202797,30.6422378 143.909371,23.5664336 165.006993,23.5664336 L165.006993,23.5664336 Z" id="Path" fill="#8C9BAF"></path>
                <path d="M129.202797,104.125874 L129.202797,90.1935664 C135.772867,95.9088112 149.011469,99.6503497 165.006993,99.6503497 C181.002517,99.6503497 194.241119,95.9088112 200.811189,90.1935664 L200.811189,104.125874 C200.811189,110.476643 186.104615,117.552448 165.006993,117.552448 C143.909371,117.552448 129.202797,110.476643 129.202797,104.125874 L129.202797,104.125874 Z" id="Path" fill="#8C9BAF"></path>
                <path d="M121.622378,109.146853 L121.622378,67.1888112 C121.622378,60.8111888 110.8,56 96.4475524,56 C82.0951049,56 71.2727273,60.8111888 71.2727273,67.1888112 L71.2727273,109.146853 C71.2727273,115.524476 82.0951049,120.335664 96.4475524,120.335664 C110.8,120.335664 121.622378,115.524476 121.622378,109.146853 L121.622378,109.146853 Z" id="Path" fill="#FFFFFF"></path>
                <path d="M118.825175,81.1748252 C118.825175,85.1440559 109.633566,89.5664336 96.4475524,89.5664336 C83.2615385,89.5664336 74.0699301,85.1440559 74.0699301,81.1748252 L74.0699301,72.4671329 C78.1762238,76.0391608 86.4503497,78.3776224 96.4475524,78.3776224 C106.444755,78.3776224 114.718881,76.0391608 118.825175,72.4671329 L118.825175,81.1748252 L118.825175,81.1748252 Z" id="Path" fill="#838CC7"></path>
                <path d="M74.0699301,86.4531469 C78.1762238,90.0251748 86.4503497,92.3636364 96.4475524,92.3636364 C106.444755,92.3636364 114.718881,90.0251748 118.825175,86.4531469 L118.825175,95.1608392 C118.825175,99.1300699 109.633566,103.552448 96.4475524,103.552448 C83.2615385,103.552448 74.0699301,99.1300699 74.0699301,95.1608392 L74.0699301,86.4531469 L74.0699301,86.4531469 Z" id="Path" fill="#838CC7"></path>
                <path d="M96.4475524,58.7972028 C109.633566,58.7972028 118.825175,63.2195804 118.825175,67.1888112 C118.825175,71.158042 109.633566,75.5804196 96.4475524,75.5804196 C83.2615385,75.5804196 74.0699301,71.158042 74.0699301,67.1888112 C74.0699301,63.2195804 83.2615385,58.7972028 96.4475524,58.7972028 L96.4475524,58.7972028 Z" id="Path" fill="#838CC7"></path>
                <path d="M74.0699301,111.146853 L74.0699301,102.439161 C78.1762238,106.011189 86.4503497,108.34965 96.4475524,108.34965 C106.444755,108.34965 114.718881,106.011189 118.825175,102.439161 L118.825175,111.146853 C118.825175,115.116084 109.633566,119.538462 96.4475524,119.538462 C83.2615385,119.538462 74.0699301,115.116084 74.0699301,111.146853 L74.0699301,111.146853 Z" id="Path" fill="#838CC7"></path>
                <path d="M118,36 L118,38 L108,38 C105.790861,38 104,39.790861 104,42 L104,53 L102,53 L102,42 C102,38.6862915 104.686292,36 108,36 L118,36 Z" id="Combined-Shape" fill="#7DC855"></path>
                <rect id="Rectangle-11" fill="#7DC855" x="120" y="36" width="4" height="2"></rect>
            </g>
        </g>
    </g>
</svg>