<?xml version="1.0" encoding="UTF-8"?>
<svg width="259px" height="110px" viewBox="0 0 259 110" version="1.1" xmlns="http://www.w3.org/2000/svg" xmlns:xlink="http://www.w3.org/1999/xlink">
    <!-- Generator: Sketch 49.1 (51147) - http://www.bohemiancoding.com/sketch -->
    <title>建立门户</title>
    <desc>Created with Sketch.</desc>
    <defs></defs>
    <g id="控制台首页" stroke="none" stroke-width="1" fill="none" fill-rule="evenodd">
        <g transform="translate(-166.000000, -172.000000)" id="Group-2">
            <g transform="translate(81.000000, 57.000000)">
                <g id="建立门户" transform="translate(85.000000, 114.000000)">
                    <g id="Illustration" transform="translate(0.060102, 0.661119)">
                        <path d="M198.311304,101.846931 L56.5200994,101.846931 L56.5200994,12.063991 C56.5200994,5.70898636 61.6715673,0.557518493 68.0265719,0.557518493 L186.804831,0.557518493 C193.159836,0.557518493 198.311304,5.70898636 198.311304,12.063991 L198.311304,101.846931 Z" id="Fill-3" fill="#8C9BAF"></path>
                        <path d="M191.877716,100.686142 L63.1067961,100.686142 L63.1067961,13.2253814 C63.1067961,9.40666898 66.2020342,6.31067961 70.0207466,6.31067961 L184.963014,6.31067961 C188.781727,6.31067961 191.877716,9.40666898 191.877716,13.2253814 L191.877716,100.686142 Z" id="Fill-5" fill="#EAEDF0"></path>
                        <g id="Group" transform="translate(97.184466, 26.504854)">
                            <path d="M60.5798116,6.54446271 L60.5780032,3.98733765 C60.5780032,2.2277318 59.1493407,0.801781936 57.390639,0.801781936 L3.18013042,0.801781936 C1.42142878,0.801781936 0,2.2277318 0,3.98733765 L0,50.8872536 C0,52.6468595 1.43137516,54.0728093 3.19098102,54.0728093 L57.4014896,54.0728093 C59.1601913,54.0728093 60.5798116,52.6468595 60.5798116,50.8872536 L60.5798116,6.54446271 Z" id="Fill-9" fill="#838CC7"></path>
                            <path d="M24.8397392,27.8758408 C21.1089407,27.8758408 18.0843356,24.8512356 18.0843356,21.1204372 C18.0843356,17.3896388 21.1089407,14.3650336 24.8397392,14.3650336 C28.5705376,14.3650336 31.5951427,17.3896388 31.5951427,21.1204372 C31.5951427,24.8512356 28.5705376,27.8758408 24.8397392,27.8758408 Z" id="Fill-11" fill="#FFFFFF"></path>
                            <path d="M46.178351,20.2740903 C46.178351,23.038281 43.9377018,25.2789302 41.1735111,25.2789302 C38.4093204,25.2789302 36.1686712,23.038281 36.1686712,20.2740903 C36.1686712,17.5098996 38.4093204,15.2692504 41.1735111,15.2692504 C43.9377018,15.2692504 46.178351,17.5098996 46.178351,20.2740903" id="Fill-13" fill="#FFFFFF" opacity="0.5"></path>
                            <path d="M48.5405486,39.2282824 C49.8516629,39.2282824 50.9105008,38.1540729 50.8942249,36.8438628 C50.8933207,36.7597706 50.8924165,36.6919544 50.8924165,36.6458393 C50.8924165,31.3317573 46.5847277,27.0240686 41.2715499,27.0240686 C35.9574679,27.0240686 31.6497792,31.3317573 31.6497792,36.6458393 C31.6497792,36.6892417 31.6488749,36.7525369 31.6479707,36.8302995 C31.6244611,38.145935 32.6851074,39.2282824 34.001647,39.2282824 L48.5405486,39.2282824 Z" id="Fill-15" fill="#FFFFFF" opacity="0.5"></path>
                            <path d="M34.5578715,46.2106444 C36.3274237,46.2106444 37.7569904,44.7611849 37.7352892,42.9916327 C37.7334808,42.8777014 37.7325766,42.7863755 37.7325766,42.7248887 C37.7325766,35.551737 31.9184627,29.7367189 24.745311,29.7367189 C17.5730635,29.7367189 11.7580453,35.551737 11.7580453,42.7248887 C11.7580453,42.7836628 11.7571411,42.867755 11.7553327,42.9735483 C11.7236851,44.7494301 13.1559645,46.2106444 14.9318462,46.2106444 L34.5578715,46.2106444 Z" id="Fill-17" fill="#FFFFFF"></path>
                            <path d="M14.9602666,8.62054443 L6.6224837,8.62054443 C5.96150123,8.62054443 5.42530068,8.0852481 5.42530068,7.42426563 C5.42530068,6.76328317 5.96150123,6.22708262 6.6224837,6.22708262 L14.9602666,6.22708262 C15.6212491,6.22708262 16.1565454,6.76328317 16.1565454,7.42426563 C16.1565454,8.0852481 15.6212491,8.62054443 14.9602666,8.62054443" id="Fill-19" fill="#FFFFFF" opacity="0.5"></path>
                            <path d="M10.9392146,13.1416283 L6.35212288,13.1416283 C5.84033618,13.1416283 5.42530068,12.7265928 5.42530068,12.2148061 L5.42530068,11.6758929 C5.42530068,11.163202 5.84033618,10.7481665 6.35212288,10.7481665 L10.9392146,10.7481665 C11.4510013,10.7481665 11.8660368,11.163202 11.8660368,11.6758929 L11.8660368,12.2148061 C11.8660368,12.7265928 11.4510013,13.1416283 10.9392146,13.1416283" id="Fill-21" fill="#FFFFFF" opacity="0.5"></path>
                        </g>
                        <path d="M140.530195,95.9940014 L140.530195,97.7219256 C140.530195,99.2169556 139.318395,100.428756 137.823365,100.428756 L117.007888,100.428756 C115.512858,100.428756 114.301058,99.2169556 114.301058,97.7219256 L114.301058,95.9940014 L45.9541436,95.9940014 L45.9541436,102.958287 C45.9541436,105.577219 48.0764852,107.699561 50.6954172,107.699561 L204.135836,107.699561 C206.754768,107.699561 208.877861,105.577219 208.877861,102.958287 L208.877861,95.9940014 L140.530195,95.9940014 Z" id="Fill-7" fill="#C4CBD4"></path>
                        <path d="M50.6954172,107.699861 L204.135836,107.699861 C206.754768,107.699861 208.877861,105.576768 208.877861,102.957836 L45.9541436,102.957836 C45.9541436,105.576768 48.0764852,107.699861 50.6954172,107.699861" id="Fill-9" fill="#8C9BAF"></path>
                        <path d="M233.68271,87.4378647 L225.47283,90.069077 C224.933722,90.2421565 224.425092,89.7357138 224.598473,89.2003123 L227.244571,81.035944 C228.907272,75.9068647 231.772806,71.2451673 235.604806,67.4347247 C239.436806,63.6242821 244.124876,60.7748684 249.282973,59.1215216 L257.492853,56.4903093 C258.031961,56.3179032 258.540592,56.8236725 258.36721,57.3597475 L255.721112,65.5234423 C254.058411,70.6525216 251.192877,75.3148924 247.360878,79.1246615 C243.528878,82.9351041 238.840807,85.7845178 233.68271,87.4378647" id="Fill-42" fill="#7DC855"></path>
                        <path d="M229.639076,81.3257533 L225.704808,88.9594343 C225.446767,89.4598159 224.726828,89.4598159 224.468788,88.9594343 L220.53452,81.3257533 C218.062481,76.5300372 216.773634,71.21845 216.773634,65.8300881 C216.773634,60.4410529 218.062481,55.130139 220.53452,50.3344229 L224.468788,42.700742 C224.726828,42.2003604 225.446767,42.2003604 225.704808,42.700742 L229.639076,50.3344229 C232.110438,55.130139 233.399962,60.4410529 233.399962,65.8300881 C233.399962,71.21845 232.110438,76.5300372 229.639076,81.3257533" id="Fill-43" fill="#6FBB47"></path>
                        <path d="M223.001834,82.606001 L225.647932,90.7696958 C225.821991,91.3057708 225.312683,91.81154 224.774253,91.639134 L216.563695,89.0079217 C211.405598,87.3545748 206.717528,84.5051611 202.885528,80.6947185 C199.053528,76.8842759 196.187994,72.2225786 194.525293,67.0934992 L191.879195,58.9298044 C191.705814,58.3937294 192.214444,57.8879602 192.753552,58.0603662 L200.963433,60.6915785 C206.121529,62.3449254 210.810277,65.1943391 214.6416,69.0047817 C218.4736,72.8152243 221.339134,77.4769216 223.001834,82.606001" id="Fill-44" fill="#5DAB34"></path>
                        <path d="M230.897796,109.674333 L216.574867,109.674333 C208.939989,109.674333 202.751086,103.520246 202.751086,95.9283191 L202.751086,86.2870508 L244.721576,86.2870508 L244.721576,95.9283191 C244.721576,103.520246 238.532673,109.674333 230.897796,109.674333" id="Fill-45" fill="#DBDFE4"></path>
                        <path d="M224.563938,86.2870508 L224.563938,109.674333 L231.725403,109.674333 C239.36028,109.674333 245.549183,103.520246 245.549183,95.9283191 L245.549183,86.2870508 L224.563938,86.2870508 Z" id="Fill-46" fill="#CDD5E0"></path>
                        <path d="M5.58547735,84.4197642 L5.58547735,76.2271498 C5.58547735,74.001884 7.38927994,72.1973301 9.61454577,72.1973301 L19.1023521,72.1973301 L19.1023521,67.4966251 L8.84223879,67.4966251 C4.39170712,67.4966251 0.784101942,71.1049815 0.784101942,75.5555132 L0.784101942,85.0914008 C0.784101942,89.5419325 4.39170712,93.1495377 8.84223879,93.1495377 L19.1023521,93.1495377 L19.1023521,88.4488326 L9.61454577,88.4488326 C7.38927994,88.4488326 5.58547735,86.6450301 5.58547735,84.4197642" id="Fill-47" fill="#CAD8D5"></path>
                        <path d="M45.092886,108.642557 L20.3084431,108.642557 C16.6940765,108.642557 13.7633669,105.711847 13.7633669,102.09748 L13.7633669,67.4969256 L51.6379623,67.4969256 L51.6379623,102.09748 C51.6379623,105.711847 48.7080039,108.642557 45.092886,108.642557" id="Fill-48" fill="#DBDFE4"></path>
                        <polygon id="Fill-49" fill="#FFFFFF" points="40.6467869 88.6267337 41.7534096 88.6267337 41.7534096 66.8939552 40.6467869 66.8939552"></polygon>
                        <polygon id="Fill-50" fill="#FE825B" points="37.2750809 93.7534096 44.6893782 93.7534096 44.6893782 82.0328248 37.2750809 82.0328248"></polygon>
                    </g>
                </g>
            </g>
        </g>
    </g>
</svg>