<?xml version="1.0" encoding="UTF-8"?>
<svg width="179px" height="138px" viewBox="0 0 179 138" version="1.1" xmlns="http://www.w3.org/2000/svg" xmlns:xlink="http://www.w3.org/1999/xlink">
    <!-- Generator: Sketch 49.1 (51147) - http://www.bohemiancoding.com/sketch -->
    <title>制作图表</title>
    <desc>Created with Sketch.</desc>
    <defs></defs>
    <g id="控制台首页" stroke="none" stroke-width="1" fill="none" fill-rule="evenodd">
        <g transform="translate(-1116.000000, -159.000000)" id="Group-5">
            <g transform="translate(990.000000, 57.000000)">
                <g id="制作图表" transform="translate(125.000000, 102.000000)">
                    <g id="Icon" transform="translate(41.250000, 0.000000)">
                        <path d="M33.989875,137.061125 C30.861125,137.838625 27.694875,135.933625 26.917375,132.806125 L0.444875,26.363625 C-0.332625,23.234875 1.572375,20.068625 4.699875,19.291125 L80.828625,0.358625 C83.956125,-0.418875 87.122375,1.486125 87.899875,4.613625 L114.372375,111.056125 C115.149875,114.184875 113.244875,117.351125 110.117375,118.128625 L33.989875,137.061125 Z" id="Fill-3" fill="#8C9BAF"></path>
                        <path d="M100.349375,109.833 L39.796875,124.89175 C37.418125,125.483 35.008125,124.0455 34.400625,121.6705 L8.755625,22.71925 L77.964375,5.508 L103.593125,104.398 C104.208125,106.7955 102.751875,109.2355 100.349375,109.833" id="Fill-5" fill="#FFFFFF"></path>
                        <path d="M74.56975,23.51025 L43.41975,31.11275 C42.4785,31.3465 41.5235,30.7865 41.26975,29.85025 C41.0085,28.8865 41.591,27.8965 42.55975,27.65525 L73.70975,20.05275 C74.651,19.819 75.60475,20.38025 75.8585,21.31525 C76.121,22.279 75.5385,23.269 74.56975,23.51025" id="Fill-7" fill="#EAEDF0"></path>
                        <path d="M77.883375,33.216375 L46.733375,40.818875 C45.792125,41.052625 44.837125,40.492625 44.583375,39.556375 C44.322125,38.592625 44.904625,37.602625 45.873375,37.361375 L77.023375,29.758875 C77.964625,29.525125 78.918375,30.086375 79.172125,31.021375 C79.434625,31.985125 78.852125,32.975125 77.883375,33.216375" id="Fill-9" fill="#EAEDF0"></path>
                        <path d="M70.27925,45.871375 L50.0055,50.626375 C49.06425,50.860125 48.1105,50.300125 47.85675,49.363875 C47.59425,48.400125 48.17675,47.410125 49.1455,47.168875 L69.41925,42.413875 C70.3605,42.180125 71.31425,42.741375 71.568,43.676375 C71.8305,44.640125 71.248,45.630125 70.27925,45.871375" id="Fill-11" fill="#EAEDF0"></path>
                        <path d="M79.65575,78.688875 L38.1095,89.040125 C37.16825,89.273875 36.21325,88.712625 35.9595,87.777625 C35.69825,86.813875 36.28075,85.823875 37.2495,85.582625 L78.79575,75.231375 C79.737,74.997625 80.69075,75.558875 80.9445,76.493875 C81.207,77.457625 80.6245,78.447625 79.65575,78.688875" id="Fill-13" fill="#EAEDF0"></path>
                        <path d="M85.257375,68.305375 L35.704875,80.449125 C34.763625,80.682875 33.808625,80.122875 33.556125,79.186625 C33.293625,78.224125 33.876125,77.232875 34.844875,76.992875 L84.397375,64.847875 C85.338625,64.614125 86.292375,65.175375 86.546125,66.110375 C86.808625,67.074125 86.226125,68.064125 85.257375,68.305375" id="Fill-15" fill="#EAEDF0"></path>
                        <path d="M84.72225,99.11775 L43.176,109.469 C42.23475,109.70275 41.27975,109.1415 41.026,108.2065 C40.76475,107.24275 41.34725,106.25275 42.316,106.0115 L83.86225,95.66025 C84.8035,95.4265 85.75725,95.98775 86.011,96.92275 C86.2735,97.8865 85.691,98.8765 84.72225,99.11775" id="Fill-17" fill="#EAEDF0"></path>
                        <path d="M90.323875,88.73425 L40.771375,100.878 C39.830125,101.11175 38.876375,100.55175 38.622625,99.6155 C38.360125,98.653 38.942625,97.66175 39.911375,97.42175 L89.463875,85.27675 C90.405125,85.043 91.358875,85.60425 91.612625,86.53925 C91.875125,87.503 91.292625,88.493 90.323875,88.73425" id="Fill-19" fill="#EAEDF0"></path>
                        <path d="M26.483875,20.462 L25.202625,15.3095 L59.740125,6.72075 L61.021375,11.872 C61.183875,12.52325 60.787625,13.182 60.136375,13.34325 L27.955125,21.347 C27.303875,21.5095 26.645125,21.11325 26.483875,20.462 M63.246375,12.1945 L60.726375,2.15825 L22.173875,11.74575 L24.591375,21.4145 C24.998875,23.047 26.656375,24.03575 28.286375,23.6195 L61.477625,15.142 C62.781375,14.81825 63.573875,13.497 63.246375,12.1945" id="Fill-21" fill="#8C9BAF"></path>
                        <path d="M94.598875,86.06275 L90.908875,101.1315 C90.637625,102.2415 91.712625,103.20525 92.786375,102.814 L107.503875,97.44775 L94.598875,86.06275 Z" id="Fill-23" fill="#CAD1D8"></path>
                        <path d="M97.58975,95.914625 C93.586,92.492125 93.11475,86.470875 96.5385,82.467125 L121.4385,53.340875 C124.861,49.337125 130.88225,48.867125 134.886,52.289625 C138.88975,55.713375 139.361,61.733375 135.93725,65.737125 L111.03725,94.863375 C107.61475,98.867125 101.5935,99.337125 97.58975,95.914625" id="Fill-25" fill="#FFA24A"></path>
                        <polygon id="Fill-27" fill="#EAEDF0" points="20.752625 70.0685 20.435125 68.81475 72.086375 56.04225 72.403875 57.296"></polygon>
                        <path d="M35.763375,31.125125 L41.099625,51.666375 C41.363375,52.678875 40.757125,53.711375 39.745875,53.976375 L29.713375,56.661375 C28.692125,56.928875 27.648375,56.310125 27.394625,55.285125 L22.230875,34.515125 C21.975875,33.491375 22.605875,32.456375 23.633375,32.213875 L33.493375,29.757625 C34.495875,29.520125 35.504625,30.127625 35.763375,31.125125" id="Fill-29" fill="#7DC855"></path>
                    </g>
                    <g id="Icon" transform="translate(43.258303, 94.371799) rotate(-14.000000) translate(-43.258303, -94.371799) translate(5.758303, 68.121799)">
                        <path d="M74.5821094,6.04234375 L0.418046875,6.04234375 L0.418046875,3.52984375 C0.418046875,1.8040625 1.81726563,0.40484375 3.54304688,0.40484375 L71.4571094,0.40484375 C73.1828906,0.40484375 74.5821094,1.8040625 74.5821094,3.52984375 L74.5821094,6.04234375 Z" id="Fill-3" fill="#838CC7"></path>
                        <path d="M71.4571094,52.0983594 L3.54304688,52.0983594 C1.81648438,52.0983594 0.418046875,50.6991406 0.418046875,48.9733594 L0.418046875,5.57179688 L74.5821094,5.57179688 L74.5821094,48.9733594 C74.5821094,50.6991406 73.1828906,52.0983594 71.4571094,52.0983594" id="Fill-5" fill="#EAEDF0"></path>
                        <path d="M35.53,30.7659375 L35.53,14.8346875 C26.714375,14.8346875 19.5651563,21.9604687 19.5229688,30.7659375 C19.5229688,30.7792187 19.5214063,30.7917187 19.5214063,30.805 C19.5214063,30.8182812 19.520625,30.8307812 19.520625,30.8440625 C19.5628125,39.6495312 26.714375,46.7753125 35.53,46.7753125 C44.3714062,46.7753125 51.539375,39.6073437 51.539375,30.7659375 L35.53,30.7659375 Z" id="Fill-7" fill="#838CC7"></path>
                        <path d="M55.4791406,26.9041406 C55.4791406,18.0627344 48.3119531,10.8947656 39.4697656,10.8947656 L39.4697656,26.9041406 L55.4791406,26.9041406 Z" id="Fill-9" fill="#FFA24A"></path>
                    </g>
                </g>
            </g>
        </g>
    </g>
</svg>