<?xml version="1.0" encoding="utf-8"?>
<!-- Generator: Adobe Illustrator 22.0.1, SVG Export Plug-In . SVG Version: 6.00 Build 0)  -->
<svg version="1.1" id="Layer_1" xmlns="http://www.w3.org/2000/svg" xmlns:xlink="http://www.w3.org/1999/xlink" x="0px" y="0px"
	 viewBox="0 0 24 24" style="enable-background:new 0 0 24 24;" xml:space="preserve">
<style type="text/css">
	.st0{fill:#838CC7;}
</style>
<title>timeline</title>
<desc>Created with Sketch.</desc>
<path id="timeline" class="st0" d="M2,14.2V9.8C0.8,9.4,0,8.3,0,7s0.8-2.4,2-2.8V1c0-0.6,0.4-1,1-1s1,0.4,1,1v3.2C5.2,4.6,6,5.7,6,7
	S5.2,9.4,4,9.8v4.3c1.2,0.4,2,1.5,2,2.8s-0.8,2.4-2,2.8V23c0,0.6-0.4,1-1,1s-1-0.4-1-1v-3.2c-1.2-0.4-2-1.5-2-2.8S0.8,14.6,2,14.2z
	 M9,8h14c0.6,0,1,0.4,1,1s-0.4,1-1,1H9c-0.6,0-1-0.4-1-1S8.4,8,9,8z M9,18h14c0.6,0,1,0.4,1,1s-0.4,1-1,1H9c-0.6,0-1-0.4-1-1
	S8.4,18,9,18z M9,4h9c0.6,0,1,0.4,1,1s-0.4,1-1,1H9C8.4,6,8,5.6,8,5S8.4,4,9,4z M9,14h9c0.6,0,1,0.4,1,1s-0.4,1-1,1H9
	c-0.6,0-1-0.4-1-1S8.4,14,9,14z M3,8c0.6,0,1-0.4,1-1S3.6,6,3,6S2,6.4,2,7S2.4,8,3,8z M3,18c0.6,0,1-0.4,1-1s-0.4-1-1-1s-1,0.4-1,1
	S2.4,18,3,18z"/>
</svg>
